<?xml version="1.0" encoding="UTF-8"?>
<!DOCTYPE svg PUBLIC "-//W3C//DTD SVG 1.1//EN" "http://www.w3.org/Graphics/SVG/1.1/DTD/svg11.dtd">
<svg xmlns="http://www.w3.org/2000/svg" version="1.1" width="1005px" height="248px" style="shape-rendering:geometricPrecision; text-rendering:geometricPrecision; image-rendering:optimizeQuality; fill-rule:evenodd; clip-rule:evenodd" xmlns:xlink="http://www.w3.org/1999/xlink">
<g><path style="opacity:0.298" fill="#b5b6b7" d="M 140.5,31.5 C 141.906,31.9731 142.573,32.9731 142.5,34.5C 141.094,34.0269 140.427,33.0269 140.5,31.5 Z"/></g>
<g><path style="opacity:0.412" fill="#a5a8a8" d="M 144.5,38.5 C 145.906,38.9731 146.573,39.9731 146.5,41.5C 145.094,41.0269 144.427,40.0269 144.5,38.5 Z"/></g>
<g><path style="opacity:0.224" fill="#c2c3c3" d="M 146.5,41.5 C 147.906,41.9731 148.573,42.9731 148.5,44.5C 147.094,44.0269 146.427,43.0269 146.5,41.5 Z"/></g>
<g><path style="opacity:1" fill="#121110" d="M 137.5,42.5 C 137.818,47.0323 137.485,51.3656 136.5,55.5C 135.167,54.8333 134.167,53.8333 133.5,52.5C 133.167,51.5 132.5,50.8333 131.5,50.5C 132.529,47.1092 134.529,44.4426 137.5,42.5 Z"/></g>
<g><path style="opacity:1" fill="#040506" d="M 140.5,43.5 C 141.833,45.5 143.167,47.5 144.5,49.5C 143.602,51.9052 142.102,53.9052 140,55.5C 139.188,51.3112 139.355,47.3112 140.5,43.5 Z"/></g>
<g><path style="opacity:1" fill="#6a6560" d="M 139.5,29.5 C 140.338,29.8417 140.672,30.5084 140.5,31.5C 139.883,31.3893 139.383,31.056 139,30.5C 138.501,34.4862 138.334,38.4862 138.5,42.5C 138.827,51.6822 138.493,60.6822 137.5,69.5C 136.833,69.5 136.5,69.1667 136.5,68.5C 137.794,64.2673 137.794,59.9339 136.5,55.5C 137.485,51.3656 137.818,47.0323 137.5,42.5C 137.334,37.8215 137.501,33.1548 138,28.5C 138.383,29.056 138.883,29.3893 139.5,29.5 Z"/></g>
<g><path style="opacity:0.337" fill="#b5b6b7" d="M 149.5,46.5 C 150.906,46.9731 151.573,47.9731 151.5,49.5C 150.094,49.0269 149.427,48.0269 149.5,46.5 Z"/></g>
<g><path style="opacity:1" fill="#080808" d="M 130.5,51.5 C 131.323,54.977 131.823,58.6437 132,62.5C 132.949,64.0931 134.115,65.4264 135.5,66.5C 135.833,67.1667 136.167,67.8333 136.5,68.5C 136.5,69.1667 136.833,69.5 137.5,69.5C 139.75,67.7827 142.25,65.4493 145,62.5C 145.179,58.9748 145.679,55.6414 146.5,52.5C 150.1,58.0377 153.434,63.7043 156.5,69.5C 156.833,70.8333 157.167,72.1667 157.5,73.5C 156.828,74.2674 155.995,74.9341 155,75.5C 154.814,78.0356 154.314,80.369 153.5,82.5C 152.728,81.3065 151.728,80.3065 150.5,79.5C 149.746,76.909 148.079,75.0757 145.5,74C 142.445,73.3658 139.445,73.5325 136.5,74.5C 134.757,72.5636 132.757,72.2302 130.5,73.5C 126.946,80.0557 122.612,86.0557 117.5,91.5C 116.495,89.2957 116.162,86.2957 116.5,82.5C 119.265,71.3028 123.932,60.9695 130.5,51.5 Z"/></g>
<g><path style="opacity:1" fill="#b09f90" d="M 133.5,52.5 C 134.167,53.8333 135.167,54.8333 136.5,55.5C 137.794,59.9339 137.794,64.2673 136.5,68.5C 136.167,67.8333 135.833,67.1667 135.5,66.5C 134.394,62.1976 133.394,57.8643 132.5,53.5C 132.624,52.8933 132.957,52.56 133.5,52.5 Z"/></g>
<g><path style="opacity:1" fill="#333a3e" d="M 140.5,31.5 C 140.427,33.0269 141.094,34.0269 142.5,34.5C 143.674,35.5137 144.34,36.847 144.5,38.5C 144.427,40.0269 145.094,41.0269 146.5,41.5C 146.427,43.0269 147.094,44.0269 148.5,44.5C 149.338,44.8417 149.672,45.5084 149.5,46.5C 149.427,48.0269 150.094,49.0269 151.5,49.5C 154.258,52.678 156.258,56.3447 157.5,60.5C 158.413,62.0861 158.413,63.5861 157.5,65C 159.2,65.9879 160.533,67.4879 161.5,69.5C 159.61,69.7035 158.11,69.0368 157,67.5C 156.536,68.0944 156.369,68.7611 156.5,69.5C 153.434,63.7043 150.1,58.0377 146.5,52.5C 146.573,50.9731 145.906,49.9731 144.5,49.5C 143.167,47.5 141.833,45.5 140.5,43.5C 140.158,42.6618 139.492,42.3284 138.5,42.5C 138.334,38.4862 138.501,34.4862 139,30.5C 139.383,31.056 139.883,31.3893 140.5,31.5 Z"/></g>
<g><path style="opacity:1" fill="#7e7269" d="M 130.5,51.5 C 130.5,50.8333 130.833,50.5 131.5,50.5C 132.5,50.8333 133.167,51.5 133.5,52.5C 132.957,52.56 132.624,52.8933 132.5,53.5C 133.394,57.8643 134.394,62.1976 135.5,66.5C 134.115,65.4264 132.949,64.0931 132,62.5C 131.823,58.6437 131.323,54.977 130.5,51.5 Z"/></g>
<g><path style="opacity:1" fill="#222425" d="M 138.5,42.5 C 139.492,42.3284 140.158,42.6618 140.5,43.5C 139.355,47.3112 139.188,51.3112 140,55.5C 142.102,53.9052 143.602,51.9052 144.5,49.5C 145.906,49.9731 146.573,50.9731 146.5,52.5C 145.679,55.6414 145.179,58.9748 145,62.5C 142.25,65.4493 139.75,67.7827 137.5,69.5C 138.493,60.6822 138.827,51.6822 138.5,42.5 Z"/></g>
<g><path style="opacity:1" fill="#c9bfae" d="M 139.5,29.5 C 138.883,29.3893 138.383,29.056 138,28.5C 137.501,33.1548 137.334,37.8215 137.5,42.5C 134.529,44.4426 132.529,47.1092 131.5,50.5C 130.833,50.5 130.5,50.8333 130.5,51.5C 123.932,60.9695 119.265,71.3028 116.5,82.5C 115.673,87.6509 115.173,92.9842 115,98.5C 114.617,99.056 114.117,99.3893 113.5,99.5C 113.5,95.5 113.5,91.5 113.5,87.5C 113.413,82.4635 113.746,77.4635 114.5,72.5C 115.662,70.0138 116.996,67.5138 118.5,65C 117.906,64.5357 117.239,64.369 116.5,64.5C 123.66,52.8527 130.327,40.8527 136.5,28.5C 138.052,27.2021 139.052,27.5354 139.5,29.5 Z"/></g>
<g><path style="opacity:1" fill="#717779" d="M 157.5,60.5 C 160.916,64.3233 163.582,68.6566 165.5,73.5C 164.211,71.752 162.711,71.4186 161,72.5C 159.205,71.2805 159.372,70.2805 161.5,69.5C 160.533,67.4879 159.2,65.9879 157.5,65C 158.413,63.5861 158.413,62.0861 157.5,60.5 Z"/></g>
<g><path style="opacity:0.839" fill="#8c8984" d="M 116.5,64.5 C 117.239,64.369 117.906,64.5357 118.5,65C 116.996,67.5138 115.662,70.0138 114.5,72.5C 114.44,71.9569 114.107,71.6236 113.5,71.5C 112.735,72.6119 111.735,73.2786 110.5,73.5C 113.232,71.0487 115.232,68.0487 116.5,64.5 Z"/></g>
<g><path style="opacity:0.388" fill="#a7a8aa" d="M 165.5,73.5 C 166.906,73.9731 167.573,74.9731 167.5,76.5C 166.5,76.1667 165.833,75.5 165.5,74.5C 165.5,74.1667 165.5,73.8333 165.5,73.5 Z"/></g>
<g><path style="opacity:0.302" fill="#c8c7c4" d="M 110.5,73.5 C 111.084,76.285 110.084,77.9517 107.5,78.5C 107.953,76.4348 108.953,74.7682 110.5,73.5 Z"/></g>
<g><path style="opacity:1" fill="#666c69" d="M 150.5,79.5 C 151.811,84.1135 153.644,88.4469 156,92.5C 157.833,94.8333 159.667,97.1667 161.5,99.5C 161.376,100.107 161.043,100.44 160.5,100.5C 156.833,95.8333 153.167,91.1667 149.5,86.5C 149.167,85.5 148.5,84.8333 147.5,84.5C 146.5,83.1667 145.5,81.8333 144.5,80.5C 142.003,76.8773 138.669,75.7106 134.5,77C 135.381,76.2917 136.047,75.4584 136.5,74.5C 139.445,73.5325 142.445,73.3658 145.5,74C 148.079,75.0757 149.746,76.909 150.5,79.5 Z"/></g>
<g><path style="opacity:0.158" fill="#e1e1e1" d="M 282.5,80.5 C 288.319,79.3475 294.319,79.1808 300.5,80C 304.245,80.3022 307.578,81.4688 310.5,83.5C 301.363,80.9415 292.03,79.9415 282.5,80.5 Z"/></g>
<g><path style="opacity:0.999" fill="#797979" d="M 282.5,80.5 C 292.03,79.9415 301.363,80.9415 310.5,83.5C 320.567,87.2339 327.233,94.2339 330.5,104.5C 330.721,107.067 331.388,109.401 332.5,111.5C 332.5,112.5 332.5,113.5 332.5,114.5C 327.5,114.5 322.5,114.5 317.5,114.5C 316.224,110.338 314.557,106.338 312.5,102.5C 311.5,99.5 309.5,97.5 306.5,96.5C 303.828,95.4986 301.162,94.4986 298.5,93.5C 296.19,92.8362 293.69,92.5029 291,92.5C 287.195,92.3037 283.695,92.9704 280.5,94.5C 273.833,97.8333 268.833,102.833 265.5,109.5C 263.095,113.756 261.595,118.423 261,123.5C 260.333,131.5 260.333,139.5 261,147.5C 261.186,150.036 261.686,152.369 262.5,154.5C 264.233,160.355 266.567,166.022 269.5,171.5C 270.167,174.167 271.833,175.833 274.5,176.5C 276.537,177.846 278.537,179.18 280.5,180.5C 281.842,181.793 283.509,182.626 285.5,183C 291.5,183.667 297.5,183.667 303.5,183C 305.974,182.963 307.974,182.13 309.5,180.5C 310.514,179.326 311.847,178.66 313.5,178.5C 315.371,178.141 316.871,177.141 318,175.5C 318.667,167.167 318.667,158.833 318,150.5C 309.585,149.517 301.085,149.183 292.5,149.5C 292.5,145.833 292.5,142.167 292.5,138.5C 305.833,138.5 319.167,138.5 332.5,138.5C 332.5,152.5 332.5,166.5 332.5,180.5C 328.752,185.874 323.752,189.541 317.5,191.5C 313.952,192.13 310.619,193.13 307.5,194.5C 300.524,195.232 293.524,195.565 286.5,195.5C 277.954,195.213 270.621,192.213 264.5,186.5C 263.089,184.086 261.089,182.419 258.5,181.5C 252.45,175.064 248.784,167.398 247.5,158.5C 246.193,144.501 246.193,130.501 247.5,116.5C 250.662,96.1409 262.329,84.1409 282.5,80.5 Z"/></g>
<g><path style="opacity:0.557" fill="#c2c2c2" d="M 587.5,84.5 C 584.478,84.196 581.478,83.696 578.5,83C 561.837,82.5001 545.17,82.3334 528.5,82.5C 528.5,82.1667 528.5,81.8333 528.5,81.5C 543.328,80.3389 558.328,80.1723 573.5,81C 578.571,81.0365 583.237,82.2031 587.5,84.5 Z"/></g>
<g><path style="opacity:0.472" fill="#c9c9c9" d="M 884.5,87.5 C 883.053,86.3778 882.053,84.8778 881.5,83C 877.179,82.501 872.846,82.3343 868.5,82.5C 868.611,81.8826 868.944,81.3826 869.5,81C 873.5,80.3333 877.5,80.3333 881.5,81C 883.171,82.8425 884.171,85.0092 884.5,87.5 Z"/></g>
<g><path style="opacity:1" fill="#404a4d" d="M 161.5,69.5 C 159.372,70.2805 159.205,71.2805 161,72.5C 162.711,71.4186 164.211,71.752 165.5,73.5C 165.5,73.8333 165.5,74.1667 165.5,74.5C 164.957,74.56 164.624,74.8933 164.5,75.5C 166.83,81.3713 166.33,87.038 163,92.5C 162.333,91.8333 161.667,91.1667 161,90.5C 160.005,85.5465 159.338,80.5465 159,75.5C 158.722,74.5842 158.222,73.9175 157.5,73.5C 157.167,72.1667 156.833,70.8333 156.5,69.5C 156.369,68.7611 156.536,68.0944 157,67.5C 158.11,69.0368 159.61,69.7035 161.5,69.5 Z"/></g>
<g><path style="opacity:1" fill="#797979" d="M 528.5,82.5 C 545.17,82.3334 561.837,82.5001 578.5,83C 581.478,83.696 584.478,84.196 587.5,84.5C 592.45,85.305 596.45,87.6383 599.5,91.5C 600.419,94.0892 602.086,96.0892 604.5,97.5C 605.674,98.5137 606.34,99.847 606.5,101.5C 608.271,109.353 608.938,117.353 608.5,125.5C 604.525,140.184 594.859,148.351 579.5,150C 567.505,150.5 555.505,150.667 543.5,150.5C 543.5,164.833 543.5,179.167 543.5,193.5C 538.5,193.5 533.5,193.5 528.5,193.5C 528.5,156.5 528.5,119.5 528.5,82.5 Z M 591.5,105.5 C 593.673,111.729 594.006,118.062 592.5,124.5C 590.992,126.181 589.992,128.181 589.5,130.5C 586.268,133.248 582.602,135.248 578.5,136.5C 566.86,137.388 555.193,137.721 543.5,137.5C 543.5,123.167 543.5,108.833 543.5,94.5C 555.553,94.1091 567.553,94.6091 579.5,96C 584.576,97.9198 588.576,101.086 591.5,105.5 Z"/></g>
<g><path style="opacity:0.236" fill="#d1d1d1" d="M 955.5,194.5 C 955.5,194.167 955.5,193.833 955.5,193.5C 955.5,156.5 955.5,119.5 955.5,82.5C 950.833,82.5 946.167,82.5 941.5,82.5C 941.167,82.5 940.833,82.5 940.5,82.5C 940.611,81.8826 940.944,81.3826 941.5,81C 946.419,80.1985 951.252,80.3651 956,81.5C 956.831,119.336 956.664,157.002 955.5,194.5 Z"/></g>
<g><path style="opacity:0.192" fill="#d8d8d8" d="M 528.5,81.5 C 528.5,81.8333 528.5,82.1667 528.5,82.5C 528.5,119.5 528.5,156.5 528.5,193.5C 533.5,193.5 538.5,193.5 543.5,193.5C 538.36,194.488 533.026,194.821 527.5,194.5C 527.168,156.663 527.502,118.996 528.5,81.5 Z"/></g>
<g><path style="opacity:1" fill="#7a7a7a" d="M 868.5,82.5 C 872.846,82.3343 877.179,82.501 881.5,83C 882.053,84.8778 883.053,86.3778 884.5,87.5C 888.738,96.8695 892.404,106.536 895.5,116.5C 895.34,118.199 895.506,119.866 896,121.5C 897.381,125.204 899.214,128.537 901.5,131.5C 901.477,135.764 902.81,139.431 905.5,142.5C 905.206,146.567 906.54,149.9 909.5,152.5C 914.208,163.614 918.541,174.947 922.5,186.5C 922.318,188.591 922.652,190.591 923.5,192.5C 918.833,193.833 914.167,193.833 909.5,192.5C 909.043,190.402 908.043,188.736 906.5,187.5C 906.472,184.084 905.472,181.084 903.5,178.5C 902.596,177.791 902.263,176.791 902.5,175.5C 901.909,172.06 900.909,168.727 899.5,165.5C 891.5,165.167 883.5,164.833 875.5,164.5C 867.138,164.502 859.138,165.169 851.5,166.5C 849.071,175.125 846.071,183.458 842.5,191.5C 839.938,192.722 837.105,193.389 834,193.5C 831.31,193.497 828.81,193.164 826.5,192.5C 828.574,184.944 831.241,177.611 834.5,170.5C 835.931,169.22 836.598,167.553 836.5,165.5C 840.314,153.889 844.647,142.556 849.5,131.5C 851.585,129.316 852.585,126.649 852.5,123.5C 857.462,109.6 862.796,95.9334 868.5,82.5 Z M 874.5,103.5 C 875.5,104.833 876.5,106.167 877.5,107.5C 878.929,113.129 880.929,118.463 883.5,123.5C 883.263,124.791 883.596,125.791 884.5,126.5C 884.733,129.542 885.733,132.208 887.5,134.5C 888.065,138.537 889.399,142.203 891.5,145.5C 891.833,147.5 892.167,149.5 892.5,151.5C 880.829,151.667 869.162,151.5 857.5,151C 859.135,147.261 860.469,143.427 861.5,139.5C 863.072,136.785 864.072,133.785 864.5,130.5C 866.964,126.556 868.63,122.223 869.5,117.5C 870.738,115.786 871.405,113.786 871.5,111.5C 873.267,109.208 874.267,106.542 874.5,103.5 Z"/></g>
<g><path style="opacity:0.583" fill="#bfbfbf" d="M 940.5,82.5 C 940.833,82.5 941.167,82.5 941.5,82.5C 941.5,119.5 941.5,156.5 941.5,193.5C 946.167,193.5 950.833,193.5 955.5,193.5C 955.5,193.833 955.5,194.167 955.5,194.5C 950.167,194.5 944.833,194.5 939.5,194.5C 939.168,156.996 939.502,119.663 940.5,82.5 Z"/></g>
<g><path style="opacity:1" fill="#747474" d="M 941.5,82.5 C 946.167,82.5 950.833,82.5 955.5,82.5C 955.5,119.5 955.5,156.5 955.5,193.5C 950.833,193.5 946.167,193.5 941.5,193.5C 941.5,156.5 941.5,119.5 941.5,82.5 Z"/></g>
<g><path style="opacity:1" fill="#131212" d="M 111.5,86.5 C 111.842,87.3382 112.508,87.6716 113.5,87.5C 113.5,91.5 113.5,95.5 113.5,99.5C 113.5,100.167 113.5,100.833 113.5,101.5C 113.5,101.833 113.5,102.167 113.5,102.5C 111.326,102.92 109.326,102.92 107.5,102.5C 108.902,101.158 108.569,100.324 106.5,100C 108.638,98.5784 109.805,96.745 110,94.5C 108.667,95.8333 107.333,97.1667 106,98.5C 105.586,98.0426 105.086,97.7093 104.5,97.5C 103.638,98.7658 102.971,100.099 102.5,101.5C 102.167,102.167 101.833,102.833 101.5,103.5C 100.167,105.833 98.8333,108.167 97.5,110.5C 96.5028,110.53 95.8361,110.03 95.5,109C 96.1476,107.56 96.4809,106.06 96.5,104.5C 100.986,103.031 102.652,100.031 101.5,95.5C 102.81,93.8523 104.143,92.1856 105.5,90.5C 104.147,89.4763 103.48,88.143 103.5,86.5C 104.756,86.0962 105.923,85.4295 107,84.5C 108.585,85.0439 110.085,85.7106 111.5,86.5 Z"/></g>
<g><path style="opacity:1" fill="#a39e99" d="M 107.5,78.5 C 106.972,79.7206 106.305,80.8873 105.5,82C 107.5,83 109.5,84 111.5,85C 112.738,85.69 112.738,86.19 111.5,86.5C 110.085,85.7106 108.585,85.0439 107,84.5C 105.923,85.4295 104.756,86.0962 103.5,86.5C 103.966,84.7988 103.966,83.2988 103.5,82C 104.532,80.3732 105.866,79.2066 107.5,78.5 Z"/></g>
<g><path style="opacity:1" fill="#55524f" d="M 114.5,72.5 C 113.746,77.4635 113.413,82.4635 113.5,87.5C 112.508,87.6716 111.842,87.3382 111.5,86.5C 112.738,86.19 112.738,85.69 111.5,85C 109.5,84 107.5,83 105.5,82C 106.305,80.8873 106.972,79.7206 107.5,78.5C 110.084,77.9517 111.084,76.285 110.5,73.5C 111.735,73.2786 112.735,72.6119 113.5,71.5C 114.107,71.6236 114.44,71.9569 114.5,72.5 Z"/></g>
<g><path style="opacity:0.271" fill="#bcbcbe" d="M 171.5,84.5 C 172.906,84.9731 173.573,85.9731 173.5,87.5C 172.094,87.0269 171.427,86.0269 171.5,84.5 Z"/></g>
<g><path style="opacity:1" fill="#5e5b58" d="M 136.5,74.5 C 136.047,75.4584 135.381,76.2917 134.5,77C 138.669,75.7106 142.003,76.8773 144.5,80.5C 142.833,80.5 141.167,80.5 139.5,80.5C 139.918,79.7784 140.584,79.2784 141.5,79C 138.697,78.245 136.03,78.5783 133.5,80C 128.603,84.7287 123.936,89.562 119.5,94.5C 119.414,93.5041 119.748,92.6708 120.5,92C 119.552,91.5172 118.552,91.3505 117.5,91.5C 122.612,86.0557 126.946,80.0557 130.5,73.5C 132.757,72.2302 134.757,72.5636 136.5,74.5 Z"/></g>
<g><path style="opacity:1" fill="#485254" d="M 150.5,79.5 C 151.728,80.3065 152.728,81.3065 153.5,82.5C 157.449,88.2889 161.616,93.9555 166,99.5C 166.814,101.902 166.647,104.235 165.5,106.5C 163.81,104.481 162.144,102.481 160.5,100.5C 161.043,100.44 161.376,100.107 161.5,99.5C 159.667,97.1667 157.833,94.8333 156,92.5C 153.644,88.4469 151.811,84.1135 150.5,79.5 Z"/></g>
<g><path style="opacity:0.165" fill="#b0b3b5" d="M 173.5,87.5 C 174.737,88.9649 175.737,90.6316 176.5,92.5C 175.833,92.5 175.167,92.5 174.5,92.5C 173.699,90.9582 173.366,89.2915 173.5,87.5 Z"/></g>
<g><path style="opacity:1" fill="#bab0a2" d="M 139.5,80.5 C 138.078,80.7086 136.745,81.2086 135.5,82C 128.292,89.7043 121.292,97.5376 114.5,105.5C 113.596,104.791 113.263,103.791 113.5,102.5C 113.5,102.167 113.5,101.833 113.5,101.5C 116.2,99.7656 118.2,97.4323 119.5,94.5C 123.936,89.562 128.603,84.7287 133.5,80C 136.03,78.5783 138.697,78.245 141.5,79C 140.584,79.2784 139.918,79.7784 139.5,80.5 Z"/></g>
<g><path style="opacity:0.074" fill="#dcdcdc" d="M 298.5,93.5 C 292.464,93.3599 286.464,93.6932 280.5,94.5C 283.695,92.9704 287.195,92.3037 291,92.5C 293.69,92.5029 296.19,92.8362 298.5,93.5 Z"/></g>
<g><path style="opacity:0.753" fill="#bfbfbf" d="M 599.5,91.5 C 601.914,92.9108 603.581,94.9108 604.5,97.5C 602.086,96.0892 600.419,94.0892 599.5,91.5 Z"/></g>
<g><path style="opacity:0.58" fill="#8f8b87" d="M 103.5,86.5 C 103.48,88.143 104.147,89.4763 105.5,90.5C 104.143,92.1856 102.81,93.8523 101.5,95.5C 100.833,95.5 100.167,95.5 99.5,95.5C 100.463,92.2558 101.796,89.2558 103.5,86.5 Z"/></g>
<g><path style="opacity:1" fill="#847f77" d="M 116.5,82.5 C 116.162,86.2957 116.495,89.2957 117.5,91.5C 118.552,91.3505 119.552,91.5172 120.5,92C 119.748,92.6708 119.414,93.5041 119.5,94.5C 118.2,97.4323 116.2,99.7656 113.5,101.5C 113.5,100.833 113.5,100.167 113.5,99.5C 114.117,99.3893 114.617,99.056 115,98.5C 115.173,92.9842 115.673,87.6509 116.5,82.5 Z"/></g>
<g><path style="opacity:0.004" fill="#f4f5f4" d="M 180.5,95.5 C 181.525,95.8966 181.692,96.5632 181,97.5C 180.536,96.9056 180.369,96.2389 180.5,95.5 Z"/></g>
<g><path style="opacity:1" fill="#3c4246" d="M 174.5,92.5 C 175.167,92.5 175.833,92.5 176.5,92.5C 177.968,93.7791 178.635,95.4458 178.5,97.5C 177.481,99.5069 175.815,100.84 173.5,101.5C 172.692,101.192 172.025,100.692 171.5,100C 172.5,98.3333 173.833,97 175.5,96C 174.663,94.9887 174.33,93.8221 174.5,92.5 Z"/></g>
<g><path style="opacity:0.596" fill="#d1d1d1" d="M 306.5,96.5 C 309.5,97.5 311.5,99.5 312.5,102.5C 310.167,100.833 308.167,98.8333 306.5,96.5 Z"/></g>
<g><path style="opacity:0.576" fill="#979899" d="M 176.5,92.5 C 177.5,92.5 178.5,92.5 179.5,92.5C 179.401,95.2372 179.735,97.9039 180.5,100.5C 180.167,100.5 179.833,100.5 179.5,100.5C 178.89,99.609 178.557,98.609 178.5,97.5C 178.635,95.4458 177.968,93.7791 176.5,92.5 Z"/></g>
<g><path style="opacity:0.004" fill="#f4f5f4" d="M 181.5,98.5 C 182.833,99.1667 182.833,99.1667 181.5,98.5 Z"/></g>
<g><path style="opacity:0.42" fill="#b7b9ba" d="M 180.5,100.5 C 184.257,100.286 184.924,101.286 182.5,103.5C 183.127,104.417 183.461,105.417 183.5,106.5C 181.755,104.967 180.755,102.967 180.5,100.5 Z"/></g>
<g><path style="opacity:0.898" fill="#9f9d98" d="M 99.5,95.5 C 99.8146,97.2259 99.9813,98.8925 100,100.5C 98.1197,99.0705 96.6197,99.4038 95.5,101.5C 96.5294,101.296 97.5294,101.796 98.5,103C 96.8659,103.494 95.1992,103.66 93.5,103.5C 93.6743,100.237 95.341,98.5704 98.5,98.5C 98.2627,97.209 98.596,96.209 99.5,95.5 Z"/></g>
<g><path style="opacity:0.18" fill="#dcdcdc" d="M 877.5,107.5 C 876.5,106.167 875.5,104.833 874.5,103.5C 874.369,102.624 874.702,101.957 875.5,101.5C 876.768,103.304 877.435,105.304 877.5,107.5 Z"/></g>
<g><path style="opacity:1" fill="#323a3e" d="M 179.5,100.5 C 179.833,100.5 180.167,100.5 180.5,100.5C 180.755,102.967 181.755,104.967 183.5,106.5C 184.441,108.05 185.107,109.716 185.5,111.5C 186.11,112.391 186.443,113.391 186.5,114.5C 185.127,114.657 183.793,114.49 182.5,114C 183.576,112.274 183.743,110.441 183,108.5C 182.577,109.956 181.744,110.456 180.5,110C 178.874,107.372 176.874,105.039 174.5,103C 176.491,102.626 178.158,101.793 179.5,100.5 Z"/></g>
<g><path style="opacity:0.035" fill="#dcdcdc" d="M 330.5,104.5 C 332.163,106.438 332.829,108.772 332.5,111.5C 331.388,109.401 330.721,107.067 330.5,104.5 Z"/></g>
<g><path style="opacity:0.314" fill="#cfcfcf" d="M 650.5,109.5 C 652.81,108.836 655.31,108.503 658,108.5C 662.112,108.349 665.946,109.016 669.5,110.5C 663.196,109.74 656.863,109.407 650.5,109.5 Z"/></g>
<g><path style="opacity:0.316" fill="#cccccc" d="M 760.5,111.5 C 752.583,109.327 744.583,108.994 736.5,110.5C 739.695,108.97 743.195,108.304 747,108.5C 751.942,108.11 756.442,109.11 760.5,111.5 Z"/></g>
<g><path style="opacity:0.945" fill="#aeaba7" d="M 93.5,103.5 C 91.9192,105.142 91.2525,107.142 91.5,109.5C 92.4935,111.854 91.4935,112.854 88.5,112.5C 88.9459,116.36 87.6125,119.36 84.5,121.5C 86.7505,116.316 88.5838,111.316 90,106.5C 90.4224,104.574 91.5891,103.574 93.5,103.5 Z"/></g>
<g><path style="opacity:1" fill="#424240" d="M 99.5,95.5 C 100.167,95.5 100.833,95.5 101.5,95.5C 102.652,100.031 100.986,103.031 96.5,104.5C 96.4809,106.06 96.1476,107.56 95.5,109C 95.8361,110.03 96.5028,110.53 97.5,110.5C 96.5,111.833 95.5,113.167 94.5,114.5C 92.5096,114.007 92.5096,112.84 94.5,111C 93.7562,109.961 92.7562,109.461 91.5,109.5C 91.2525,107.142 91.9192,105.142 93.5,103.5C 95.1992,103.66 96.8659,103.494 98.5,103C 97.5294,101.796 96.5294,101.296 95.5,101.5C 96.6197,99.4038 98.1197,99.0705 100,100.5C 99.9813,98.8925 99.8146,97.2259 99.5,95.5 Z"/></g>
<g><path style="opacity:1" fill="#7a7a7a" d="M 402.5,111.5 C 410.167,114.5 415.5,119.833 418.5,127.5C 418.402,129.553 419.069,131.22 420.5,132.5C 421.341,134.379 421.675,136.379 421.5,138.5C 421.5,144.167 421.5,149.833 421.5,155.5C 402.833,155.5 384.167,155.5 365.5,155.5C 365.216,157.415 365.549,159.081 366.5,160.5C 367.813,169.126 372.147,175.793 379.5,180.5C 380.058,181.79 381.058,182.623 382.5,183C 387.833,183.667 393.167,183.667 398.5,183C 400.437,182.878 401.77,182.045 402.5,180.5C 405.919,178.588 408.919,176.088 411.5,173C 412.749,172.26 413.749,172.427 414.5,173.5C 415.539,175.531 417.205,176.864 419.5,177.5C 421.273,178.314 421.773,179.648 421,181.5C 415.62,188.266 408.786,192.599 400.5,194.5C 391.418,194.77 382.418,194.103 373.5,192.5C 369.024,191.343 365.358,189.01 362.5,185.5C 361.864,183.205 360.531,181.539 358.5,180.5C 357.662,180.158 357.328,179.492 357.5,178.5C 356.674,175.515 355.341,172.849 353.5,170.5C 352.549,169.081 352.216,167.415 352.5,165.5C 352.301,155.473 352.634,145.473 353.5,135.5C 356.225,125.789 361.891,118.456 370.5,113.5C 376.091,111.251 381.924,109.918 388,109.5C 392.9,109.768 397.733,110.434 402.5,111.5 Z M 406.5,136.5 C 406.244,138.792 406.577,140.959 407.5,143C 394.171,143.5 380.837,143.667 367.5,143.5C 367.5,142.5 367.5,141.5 367.5,140.5C 368.234,139.292 368.567,137.959 368.5,136.5C 370.417,133.669 372.083,130.669 373.5,127.5C 374.5,127.167 375.167,126.5 375.5,125.5C 377.027,125.573 378.027,124.906 378.5,123.5C 392.19,118.68 401.523,123.014 406.5,136.5 Z"/></g>
<g><path style="opacity:1" fill="#757575" d="M 488.5,110.5 C 490.553,110.402 492.22,111.069 493.5,112.5C 493.973,113.906 494.973,114.573 496.5,114.5C 497.08,116.749 498.413,118.415 500.5,119.5C 501.338,119.842 501.672,120.508 501.5,121.5C 501.804,124.522 502.304,127.522 503,130.5C 503.5,151.497 503.667,172.497 503.5,193.5C 499.167,193.5 494.833,193.5 490.5,193.5C 490.667,173.164 490.5,152.831 490,132.5C 489.722,131.584 489.222,130.918 488.5,130.5C 484.501,123.669 478.501,120.836 470.5,122C 467.721,122.561 465.054,123.394 462.5,124.5C 460.973,124.427 459.973,125.094 459.5,126.5C 459.167,127.5 458.5,128.167 457.5,128.5C 456.094,128.973 455.427,129.973 455.5,131.5C 455.5,132.167 455.167,132.5 454.5,132.5C 453.778,132.918 453.278,133.584 453,134.5C 452.5,154.164 452.333,173.831 452.5,193.5C 448.167,193.5 443.833,193.5 439.5,193.5C 439.5,166.167 439.5,138.833 439.5,111.5C 443.833,111.5 448.167,111.5 452.5,111.5C 451.351,122.188 454.017,122.855 460.5,113.5C 464.325,112.926 467.991,111.759 471.5,110C 477.195,109.374 482.862,109.541 488.5,110.5 Z"/></g>
<g><path style="opacity:0.999" fill="#7b7b7b" d="M 650.5,109.5 C 656.863,109.407 663.196,109.74 669.5,110.5C 672.754,110.794 675.421,112.127 677.5,114.5C 677.973,115.906 678.973,116.573 680.5,116.5C 682.984,118.8 684.984,121.467 686.5,124.5C 688.18,129.903 689.847,135.237 691.5,140.5C 692.833,145.833 692.833,151.167 691.5,156.5C 672.833,156.5 654.167,156.5 635.5,156.5C 635.159,160.16 635.825,163.493 637.5,166.5C 640.026,173.029 644.36,178.029 650.5,181.5C 650.918,182.222 651.584,182.722 652.5,183C 657.833,183.667 663.167,183.667 668.5,183C 669.416,182.722 670.082,182.222 670.5,181.5C 671.514,180.326 672.847,179.66 674.5,179.5C 677.5,177.5 680.5,175.5 683.5,173.5C 685.404,173.738 686.738,174.738 687.5,176.5C 688.942,177.82 689.608,179.486 689.5,181.5C 689.5,182.833 688.833,183.5 687.5,183.5C 685.5,184.833 683.833,186.5 682.5,188.5C 679.948,190.943 676.948,192.61 673.5,193.5C 663.828,194.756 654.161,194.756 644.5,193.5C 631.374,188.2 623.541,178.533 621,164.5C 617.162,145.02 622.329,128.52 636.5,115C 640.879,112.306 645.546,110.473 650.5,109.5 Z M 667.5,123.5 C 668.833,125.5 670.5,127.167 672.5,128.5C 672.992,130.819 673.992,132.819 675.5,134.5C 675.5,134.833 675.5,135.167 675.5,135.5C 676.265,138.096 676.599,140.763 676.5,143.5C 663.163,143.667 649.829,143.5 636.5,143C 637.554,140.618 638.221,138.118 638.5,135.5C 644.405,122.529 654.072,118.529 667.5,123.5 Z"/></g>
<g><path style="opacity:0.999" fill="#787878" d="M 760.5,111.5 C 765.761,113.592 769.594,117.259 772,122.5C 773.079,125.063 773.579,127.729 773.5,130.5C 773.5,151.5 773.5,172.5 773.5,193.5C 768.833,193.5 764.167,193.5 759.5,193.5C 759.371,174.336 759.371,155.336 759.5,136.5C 759.662,134.473 759.495,132.473 759,130.5C 758.617,129.944 758.117,129.611 757.5,129.5C 751.126,121.573 743.126,119.573 733.5,123.5C 731.973,123.427 730.973,124.094 730.5,125.5C 728.138,128.192 725.804,130.859 723.5,133.5C 722.503,153.326 722.17,173.326 722.5,193.5C 717.833,193.5 713.167,193.5 708.5,193.5C 708.5,166.167 708.5,138.833 708.5,111.5C 712.833,111.5 717.167,111.5 721.5,111.5C 721.183,114.572 721.516,117.572 722.5,120.5C 724.188,119.479 725.521,118.145 726.5,116.5C 729.161,113.498 732.495,111.498 736.5,110.5C 744.583,108.994 752.583,109.327 760.5,111.5 Z"/></g>
<g><path style="opacity:0.329" fill="#cdcdcd" d="M 874.5,103.5 C 874.267,106.542 873.267,109.208 871.5,111.5C 871.733,108.458 872.733,105.792 874.5,103.5 Z"/></g>
<g><path style="opacity:0.592" fill="#c6c6c6" d="M 877.5,107.5 C 880.454,112.348 882.454,117.681 883.5,123.5C 880.929,118.463 878.929,113.129 877.5,107.5 Z"/></g>
<g><path style="opacity:0.027" fill="#d6d7d7" d="M 185.5,111.5 C 187.048,111.821 187.715,112.821 187.5,114.5C 187.167,114.5 186.833,114.5 186.5,114.5C 186.443,113.391 186.11,112.391 185.5,111.5 Z"/></g>
<g><path style="opacity:0.988" fill="#b2b2b2" d="M 402.5,111.5 C 397.733,110.434 392.9,109.768 388,109.5C 381.924,109.918 376.091,111.251 370.5,113.5C 373.437,111.344 376.771,109.844 380.5,109C 385.833,108.333 391.167,108.333 396.5,109C 398.723,109.566 400.723,110.4 402.5,111.5 Z"/></g>
<g><path style="opacity:0.589" fill="#bababa" d="M 460.5,113.5 C 454.017,122.855 451.351,122.188 452.5,111.5C 448.167,111.5 443.833,111.5 439.5,111.5C 439.5,138.833 439.5,166.167 439.5,193.5C 443.833,193.5 448.167,193.5 452.5,193.5C 452.333,173.831 452.5,154.164 453,134.5C 453.278,133.584 453.778,132.918 454.5,132.5C 454.5,153.167 454.5,173.833 454.5,194.5C 449.167,194.5 443.833,194.5 438.5,194.5C 438.5,166.167 438.5,137.833 438.5,109.5C 443.179,109.334 447.845,109.501 452.5,110C 453.282,112.74 453.782,115.574 454,118.5C 455.777,116.21 457.944,114.543 460.5,113.5 Z"/></g>
<g><path style="opacity:0.98" fill="#b0b0b0" d="M 488.5,110.5 C 482.862,109.541 477.195,109.374 471.5,110C 467.991,111.759 464.325,112.926 460.5,113.5C 468.115,108.811 476.449,107.311 485.5,109C 486.737,109.232 487.737,109.732 488.5,110.5 Z"/></g>
<g><path style="opacity:0.004" fill="#e0e0e0" d="M 493.5,112.5 C 495.027,112.427 496.027,113.094 496.5,114.5C 494.973,114.573 493.973,113.906 493.5,112.5 Z"/></g>
<g><path style="opacity:1" fill="#2b3133" d="M 161.5,123.5 C 161.573,125.027 160.906,126.027 159.5,126.5C 157.916,123.609 156.416,120.609 155,117.5C 154.415,119.129 153.581,120.629 152.5,122C 153.984,125.13 155.317,128.297 156.5,131.5C 156.167,132.167 155.833,132.833 155.5,133.5C 152.011,128.53 149.011,123.197 146.5,117.5C 148.844,118.347 150.344,120.014 151,122.5C 151.944,114.916 154.944,108.249 160,102.5C 157.708,109.646 158.208,116.646 161.5,123.5 Z"/></g>
<g><path style="opacity:0.492" fill="#cacaca" d="M 606.5,101.5 C 610.469,109.265 611.135,117.265 608.5,125.5C 608.938,117.353 608.271,109.353 606.5,101.5 Z"/></g>
<g><path style="opacity:0.264" fill="#d7d7d7" d="M 332.5,111.5 C 333.434,112.568 333.768,113.901 333.5,115.5C 327.974,115.821 322.64,115.488 317.5,114.5C 322.5,114.5 327.5,114.5 332.5,114.5C 332.5,113.5 332.5,112.5 332.5,111.5 Z"/></g>
<g><path style="opacity:0.388" fill="#bebebe" d="M 591.5,105.5 C 593.867,108.68 594.867,112.347 594.5,116.5C 594.713,119.527 594.047,122.193 592.5,124.5C 594.006,118.062 593.673,111.729 591.5,105.5 Z"/></g>
<g><path style="opacity:0.004" fill="#e0e0e0" d="M 677.5,114.5 C 679.027,114.427 680.027,115.094 680.5,116.5C 678.973,116.573 677.973,115.906 677.5,114.5 Z"/></g>
<g><path style="opacity:0.639" fill="#c9c9c9" d="M 496.5,114.5 C 498.587,115.585 499.92,117.251 500.5,119.5C 498.413,118.415 497.08,116.749 496.5,114.5 Z"/></g>
<g><path style="opacity:0.039" fill="#b7b8b9" d="M 188.5,116.5 C 192.093,117.43 193.759,119.763 193.5,123.5C 192.018,121.109 190.351,118.776 188.5,116.5 Z"/></g>
<g><path style="opacity:1" fill="#2a3135" d="M 194.5,128.5 C 195.167,128.833 195.833,129.167 196.5,129.5C 197.338,129.842 197.672,130.508 197.5,131.5C 197.557,132.609 197.89,133.609 198.5,134.5C 198.167,135.833 197.833,137.167 197.5,138.5C 195.833,138.5 194.167,138.5 192.5,138.5C 192.5,140.167 192.5,141.833 192.5,143.5C 190.753,142.019 189.586,140.019 189,137.5C 188.278,140.261 188.445,142.927 189.5,145.5C 188.317,145.156 187.484,145.822 187,147.5C 186.827,153.348 186.327,159.015 185.5,164.5C 185.666,158.491 185.499,152.491 185,146.5C 184.768,145.263 184.268,144.263 183.5,143.5C 183.671,140.203 183.005,139.869 181.5,142.5C 180.893,142.376 180.56,142.043 180.5,141.5C 181.124,141.083 181.457,140.416 181.5,139.5C 179.767,132.795 176.434,127.129 171.5,122.5C 171.666,118.486 171.499,114.486 171,110.5C 169.723,112.747 168.223,114.747 166.5,116.5C 166.69,111.455 168.523,107.122 172,103.5C 172.318,105.061 173.151,106.228 174.5,107C 172.789,108.133 172.289,109.633 173,111.5C 174.3,114.295 175.8,116.961 177.5,119.5C 178.651,120.731 179.817,120.731 181,119.5C 183.65,122.651 186.484,125.651 189.5,128.5C 191.316,129.735 192.983,129.735 194.5,128.5 Z"/></g>
<g><path style="opacity:0.62" fill="#b1b1b1" d="M 708.5,111.5 C 712.97,110.514 717.637,110.181 722.5,110.5C 722.337,112.857 722.503,115.19 723,117.5C 723.333,116.5 723.667,115.5 724,114.5C 724.417,115.756 725.25,116.423 726.5,116.5C 725.521,118.145 724.188,119.479 722.5,120.5C 721.516,117.572 721.183,114.572 721.5,111.5C 717.167,111.5 712.833,111.5 708.5,111.5 Z"/></g>
<g><path style="opacity:1" fill="#2e3436" d="M 113.5,102.5 C 113.263,103.791 113.596,104.791 114.5,105.5C 113.109,107.571 111.276,109.238 109,110.5C 108.333,112.5 108.333,114.5 109,116.5C 113.754,121.386 116.92,127.053 118.5,133.5C 114.833,133.5 111.167,133.5 107.5,133.5C 107.611,132.883 107.944,132.383 108.5,132C 106.167,131.667 103.833,131.333 101.5,131C 102.354,129.978 103.354,129.145 104.5,128.5C 106.452,130.533 108.618,130.866 111,129.5C 111.362,127.021 110.529,125.021 108.5,123.5C 107.252,121.351 105.752,119.351 104,117.5C 103.827,111.984 103.327,106.651 102.5,101.5C 102.971,100.099 103.638,98.7658 104.5,97.5C 105.086,97.7093 105.586,98.0426 106,98.5C 107.333,97.1667 108.667,95.8333 110,94.5C 109.805,96.745 108.638,98.5784 106.5,100C 108.569,100.324 108.902,101.158 107.5,102.5C 109.326,102.92 111.326,102.92 113.5,102.5 Z"/></g>
<g><path style="opacity:0.973" fill="#b3b3b3" d="M 895.5,116.5 C 897.871,121.265 899.871,126.265 901.5,131.5C 899.214,128.537 897.381,125.204 896,121.5C 895.506,119.866 895.34,118.199 895.5,116.5 Z"/></g>
<g><path style="opacity:1" fill="#605a55" d="M 159.5,126.5 C 159.279,128.664 158.279,130.33 156.5,131.5C 155.317,128.297 153.984,125.13 152.5,122C 153.581,120.629 154.415,119.129 155,117.5C 156.416,120.609 157.916,123.609 159.5,126.5 Z"/></g>
<g><path style="opacity:1" fill="#aa9a8c" d="M 101.5,103.5 C 102.645,107.311 102.812,111.311 102,115.5C 99.706,116.422 97.5394,117.422 95.5,118.5C 92.8181,124.537 89.1514,129.871 84.5,134.5C 83.375,133.652 83.375,132.652 84.5,131.5C 84.5,131.167 84.5,130.833 84.5,130.5C 87.3059,124.899 90.6392,119.566 94.5,114.5C 95.5,113.167 96.5,111.833 97.5,110.5C 98.8333,108.167 100.167,105.833 101.5,103.5 Z"/></g>
<g><path style="opacity:1" fill="#090808" d="M 171.5,122.5 C 176.434,127.129 179.767,132.795 181.5,139.5C 181.457,140.416 181.124,141.083 180.5,141.5C 179.833,141.5 179.167,141.5 178.5,141.5C 178.672,140.508 178.338,139.842 177.5,139.5C 175.768,136.888 174.268,137.221 173,140.5C 169.686,139.406 167.186,140.406 165.5,143.5C 165.5,143.833 165.5,144.167 165.5,144.5C 164.698,143.048 164.198,141.382 164,139.5C 163.333,140.167 162.667,140.833 162,141.5C 159.734,140.044 157.234,139.21 154.5,139C 156.382,138.802 158.048,138.302 159.5,137.5C 163.5,132.5 167.5,127.5 171.5,122.5 Z"/></g>
<g><path style="opacity:0.604" fill="#c8c8c8" d="M 667.5,123.5 C 670.167,124.167 671.833,125.833 672.5,128.5C 670.5,127.167 668.833,125.5 667.5,123.5 Z"/></g>
<g><path style="opacity:0.204" fill="#d1d1d1" d="M 869.5,117.5 C 868.63,122.223 866.964,126.556 864.5,130.5C 865.37,125.777 867.036,121.444 869.5,117.5 Z"/></g>
<g><path style="opacity:0.012" fill="#e1e1e1" d="M 378.5,123.5 C 378.027,124.906 377.027,125.573 375.5,125.5C 375.973,124.094 376.973,123.427 378.5,123.5 Z"/></g>
<g><path style="opacity:0.016" fill="#e0e0e0" d="M 733.5,123.5 C 733.027,124.906 732.027,125.573 730.5,125.5C 730.973,124.094 731.973,123.427 733.5,123.5 Z"/></g>
<g><path style="opacity:1" fill="#74706a" d="M 91.5,109.5 C 92.7562,109.461 93.7562,109.961 94.5,111C 92.5096,112.84 92.5096,114.007 94.5,114.5C 90.6392,119.566 87.3059,124.899 84.5,130.5C 83.5994,128.273 81.9328,127.273 79.5,127.5C 81.5435,125.792 83.2101,123.792 84.5,121.5C 87.6125,119.36 88.9459,116.36 88.5,112.5C 91.4935,112.854 92.4935,111.854 91.5,109.5 Z"/></g>
<g><path style="opacity:1" fill="#7f7268" d="M 102.5,101.5 C 103.327,106.651 103.827,111.984 104,117.5C 105.752,119.351 107.252,121.351 108.5,123.5C 107.269,124.718 106.102,126.051 105,127.5C 104.617,126.944 104.117,126.611 103.5,126.5C 101.118,123.452 98.4518,120.785 95.5,118.5C 97.5394,117.422 99.706,116.422 102,115.5C 102.812,111.311 102.645,107.311 101.5,103.5C 101.833,102.833 102.167,102.167 102.5,101.5 Z"/></g>
<g><path style="opacity:0.024" fill="#dedede" d="M 462.5,124.5 C 462.027,125.906 461.027,126.573 459.5,126.5C 459.973,125.094 460.973,124.427 462.5,124.5 Z"/></g>
<g><path style="opacity:1" fill="#a59789" d="M 171.5,122.5 C 167.5,127.5 163.5,132.5 159.5,137.5C 157.396,137.799 155.396,137.466 153.5,136.5C 154.193,135.482 154.859,134.482 155.5,133.5C 155.833,132.833 156.167,132.167 156.5,131.5C 158.279,130.33 159.279,128.664 159.5,126.5C 160.906,126.027 161.573,125.027 161.5,123.5C 163.522,121.469 165.189,119.135 166.5,116.5C 168.223,114.747 169.723,112.747 171,110.5C 171.499,114.486 171.666,118.486 171.5,122.5 Z"/></g>
<g><path style="opacity:0.272" fill="#cbcbcb" d="M 247.5,116.5 C 246.193,130.501 246.193,144.501 247.5,158.5C 246.698,157.048 246.198,155.382 246,153.5C 245.333,142.833 245.333,132.167 246,121.5C 246.198,119.618 246.698,117.952 247.5,116.5 Z"/></g>
<g><path style="opacity:0.137" fill="#d9d9d9" d="M 592.5,124.5 C 592.539,127.089 591.539,129.089 589.5,130.5C 589.992,128.181 590.992,126.181 592.5,124.5 Z"/></g>
<g><path style="opacity:0.18" fill="#b6b8b9" d="M 193.5,123.5 C 195.008,125.181 196.008,127.181 196.5,129.5C 195.833,129.167 195.167,128.833 194.5,128.5C 193.699,126.958 193.366,125.292 193.5,123.5 Z"/></g>
<g><path style="opacity:0.004" fill="#f4f5f4" d="M 77.5,130.5 C 76.8333,129.167 76.8333,129.167 77.5,130.5 Z"/></g>
<g><path style="opacity:0.02" fill="#dfdfdf" d="M 457.5,128.5 C 457.573,130.027 456.906,131.027 455.5,131.5C 455.427,129.973 456.094,128.973 457.5,128.5 Z"/></g>
<g><path style="opacity:0.137" fill="#cdcdcd" d="M 852.5,123.5 C 852.585,126.649 851.585,129.316 849.5,131.5C 849.98,128.557 850.98,125.89 852.5,123.5 Z"/></g>
<g><path style="opacity:0.524" fill="#bdbdbd" d="M 265.5,109.5 C 261.798,124.301 260.798,139.301 262.5,154.5C 261.686,152.369 261.186,150.036 261,147.5C 260.333,139.5 260.333,131.5 261,123.5C 261.595,118.423 263.095,113.756 265.5,109.5 Z"/></g>
<g><path style="opacity:0.063" fill="#e1e1e1" d="M 418.5,127.5 C 419.931,128.78 420.598,130.447 420.5,132.5C 419.069,131.22 418.402,129.553 418.5,127.5 Z"/></g>
<g><path style="opacity:0.22" fill="#d3d3d3" d="M 672.5,128.5 C 674.539,129.911 675.539,131.911 675.5,134.5C 673.992,132.819 672.992,130.819 672.5,128.5 Z"/></g>
<g><path style="opacity:1" fill="#333332" d="M 79.5,127.5 C 81.9328,127.273 83.5994,128.273 84.5,130.5C 84.5,130.833 84.5,131.167 84.5,131.5C 82.7182,132.991 81.0516,134.658 79.5,136.5C 76.2354,138.23 75.2354,137.563 76.5,134.5C 76.8333,133.167 77.1667,131.833 77.5,130.5C 78.1667,129.5 78.8333,128.5 79.5,127.5 Z"/></g>
<g><path style="opacity:0.608" fill="#bcbcbc" d="M 686.5,124.5 C 689.695,129.257 691.361,134.591 691.5,140.5C 689.847,135.237 688.18,129.903 686.5,124.5 Z"/></g>
<g><path style="opacity:0.655" fill="#bebebe" d="M 757.5,129.5 C 758.117,129.611 758.617,129.944 759,130.5C 759.495,132.473 759.662,134.473 759.5,136.5C 758.593,134.343 757.927,132.01 757.5,129.5 Z"/></g>
<g><path style="opacity:0.18" fill="#c4c4c4" d="M 141.5,130.5 C 141.833,130.5 142.167,130.5 142.5,130.5C 143.773,132.713 144.773,135.046 145.5,137.5C 143.412,135.664 142.079,133.331 141.5,130.5 Z"/></g>
<g><path style="opacity:0.204" fill="#d5d5d5" d="M 373.5,127.5 C 372.083,130.669 370.417,133.669 368.5,136.5C 368.884,132.728 370.55,129.728 373.5,127.5 Z"/></g>
<g><path style="opacity:0.341" fill="#c6c6c6" d="M 884.5,126.5 C 886.397,128.698 887.397,131.364 887.5,134.5C 885.733,132.208 884.733,129.542 884.5,126.5 Z"/></g>
<g><path style="opacity:1" fill="#0e0e0f" d="M 157.5,73.5 C 158.222,73.9175 158.722,74.5842 159,75.5C 159.338,80.5465 160.005,85.5465 161,90.5C 161.667,91.1667 162.333,91.8333 163,92.5C 166.33,87.038 166.83,81.3713 164.5,75.5C 164.624,74.8933 164.957,74.56 165.5,74.5C 165.833,75.5 166.5,76.1667 167.5,76.5C 169.341,78.8485 170.674,81.5152 171.5,84.5C 171.427,86.0269 172.094,87.0269 173.5,87.5C 173.366,89.2915 173.699,90.9582 174.5,92.5C 174.33,93.8221 174.663,94.9887 175.5,96C 173.833,97 172.5,98.3333 171.5,100C 172.025,100.692 172.692,101.192 173.5,101.5C 175.815,100.84 177.481,99.5069 178.5,97.5C 178.557,98.609 178.89,99.609 179.5,100.5C 178.158,101.793 176.491,102.626 174.5,103C 176.874,105.039 178.874,107.372 180.5,110C 181.744,110.456 182.577,109.956 183,108.5C 183.743,110.441 183.576,112.274 182.5,114C 183.793,114.49 185.127,114.657 186.5,114.5C 186.833,114.5 187.167,114.5 187.5,114.5C 188.338,114.842 188.672,115.508 188.5,116.5C 190.351,118.776 192.018,121.109 193.5,123.5C 193.366,125.292 193.699,126.958 194.5,128.5C 192.983,129.735 191.316,129.735 189.5,128.5C 186.484,125.651 183.65,122.651 181,119.5C 179.817,120.731 178.651,120.731 177.5,119.5C 175.8,116.961 174.3,114.295 173,111.5C 172.289,109.633 172.789,108.133 174.5,107C 173.151,106.228 172.318,105.061 172,103.5C 168.523,107.122 166.69,111.455 166.5,116.5C 165.189,119.135 163.522,121.469 161.5,123.5C 158.208,116.646 157.708,109.646 160,102.5C 154.944,108.249 151.944,114.916 151,122.5C 150.344,120.014 148.844,118.347 146.5,117.5C 146.167,117.5 145.833,117.5 145.5,117.5C 145.344,114.159 144.011,111.326 141.5,109C 138.904,108.542 136.737,109.375 135,111.5C 128.895,124.156 122.229,136.489 115,148.5C 113.691,150.747 113.025,153.08 113,155.5C 121.43,140.972 129.597,126.305 137.5,111.5C 140.839,114.835 143.172,118.835 144.5,123.5C 143.935,125.952 143.268,128.285 142.5,130.5C 141.829,129.153 141.829,127.986 142.5,127C 141.473,126.487 140.473,125.987 139.5,125.5C 139.167,125.5 138.833,125.5 138.5,125.5C 138.5,124.833 138.5,124.167 138.5,123.5C 137.377,122.243 136.711,122.576 136.5,124.5C 135.596,125.209 135.263,126.209 135.5,127.5C 133.008,133.818 130.008,139.818 126.5,145.5C 124.75,146.659 123.75,148.326 123.5,150.5C 123.34,152.153 122.674,153.486 121.5,154.5C 120.957,154.56 120.624,154.893 120.5,155.5C 123.428,156.484 126.428,156.817 129.5,156.5C 127.167,157.167 124.833,157.833 122.5,158.5C 120.473,158.338 118.473,158.505 116.5,159C 115.279,161.034 113.945,162.867 112.5,164.5C 112.5,168.5 112.5,172.5 112.5,176.5C 110.621,176.393 110.288,176.893 111.5,178C 117.825,178.5 124.158,178.666 130.5,178.5C 130.5,178.833 130.5,179.167 130.5,179.5C 130.982,185.173 133.482,189.84 138,193.5C 138.333,187.167 138.667,180.833 139,174.5C 141.349,171.983 143.849,169.65 146.5,167.5C 141.88,166.507 137.214,166.173 132.5,166.5C 150.338,165.173 168.338,165.173 186.5,166.5C 187.667,168.167 188.833,169.833 190,171.5C 191.356,170.62 192.856,170.286 194.5,170.5C 194.281,171.675 194.614,172.675 195.5,173.5C 196.687,170.831 197.52,168.165 198,165.5C 195.619,166.435 193.119,166.768 190.5,166.5C 191.747,159.307 191.414,152.307 189.5,145.5C 188.445,142.927 188.278,140.261 189,137.5C 189.586,140.019 190.753,142.019 192.5,143.5C 192.5,144.5 192.5,145.5 192.5,146.5C 193.022,149.568 193.855,152.568 195,155.5C 198.964,151.268 200.464,151.601 199.5,156.5C 203.608,155.626 207.275,155.626 210.5,156.5C 210.649,157.552 210.483,158.552 210,159.5C 206.008,162.492 202.342,165.826 199,169.5C 195.466,177.836 190.966,185.503 185.5,192.5C 183.665,191.878 182.498,190.544 182,188.5C 181.667,189.5 181.333,190.5 181,191.5C 180.667,191.167 180.333,190.833 180,190.5C 178.826,192.671 176.993,193.671 174.5,193.5C 172.92,190.341 171.92,187.007 171.5,183.5C 168.959,185.599 165.959,186.932 162.5,187.5C 162.393,189.903 163.393,191.736 165.5,193C 164.207,193.49 162.873,193.657 161.5,193.5C 161.132,197.044 162.132,200.044 164.5,202.5C 165.415,204.754 166.748,206.754 168.5,208.5C 168.137,209.183 167.804,209.85 167.5,210.5C 162.359,211.195 157.192,211.862 152,212.5C 149.991,212.242 148.157,211.575 146.5,210.5C 145.903,209.861 145.07,209.528 144,209.5C 138.34,210.052 132.84,210.719 127.5,211.5C 126.386,214.407 124.719,214.907 122.5,213C 116.124,213.004 109.957,212.17 104,210.5C 98.3885,211.635 92.7218,212.302 87,212.5C 83.1952,212.696 79.6952,212.03 76.5,210.5C 73.3619,208.193 70.6952,205.359 68.5,202C 70.5029,201.665 72.1696,200.832 73.5,199.5C 74.1667,200.833 75.1667,201.833 76.5,202.5C 79.6691,205.639 83.6691,207.305 88.5,207.5C 91.6305,208.092 93.9639,207.092 95.5,204.5C 96.1515,203.909 96.8182,203.243 97.5,202.5C 112.03,203.827 126.53,203.827 141,202.5C 145.013,206.502 148.68,206.169 152,201.5C 153.015,197.56 153.515,193.56 153.5,189.5C 154.791,189.737 155.791,189.404 156.5,188.5C 159.792,186.542 162.792,184.209 165.5,181.5C 165.167,180.5 164.5,179.833 163.5,179.5C 160.469,180.825 157.469,180.825 154.5,179.5C 154.232,177.901 154.566,176.568 155.5,175.5C 156.309,176.469 157.309,177.302 158.5,178C 169.848,178.832 181.181,178.666 192.5,177.5C 190.228,176.515 187.895,175.681 185.5,175C 184.663,173.989 184.33,172.822 184.5,171.5C 182.325,171.682 180.325,172.349 178.5,173.5C 174.453,171.476 170.453,169.476 166.5,167.5C 164.03,169.731 161.697,169.731 159.5,167.5C 158.429,169.325 159.096,170.492 161.5,171C 160.944,171.383 160.611,171.883 160.5,172.5C 158.396,172.707 156.063,172.874 153.5,173C 152.956,173.717 152.289,174.217 151.5,174.5C 151.294,172.451 150.461,172.117 149,173.5C 148.882,181.883 148.715,190.216 148.5,198.5C 146.094,200.655 143.427,200.655 140.5,198.5C 139.749,199.376 139.249,200.376 139,201.5C 130.392,200.252 121.725,200.252 113,201.5C 108.435,200.77 105.601,198.104 104.5,193.5C 103.824,194.602 103.158,195.602 102.5,196.5C 99.1889,191.69 95.3556,187.357 91,183.5C 92.6365,187.596 93.8032,191.929 94.5,196.5C 94.6716,197.492 94.3382,198.158 93.5,198.5C 92.8333,198.167 92.1667,197.833 91.5,197.5C 89.7078,196.691 87.7078,196.191 85.5,196C 84.695,194.887 84.0283,193.721 83.5,192.5C 83.2671,190.938 82.6005,189.605 81.5,188.5C 79.8532,185.527 77.8532,182.86 75.5,180.5C 72.0863,173.419 66.7529,168.419 59.5,165.5C 59.1667,165.5 58.8333,165.5 58.5,165.5C 60.9815,164.742 63.6481,164.742 66.5,165.5C 66.595,163.214 67.2616,161.214 68.5,159.5C 70.2805,162.454 72.2805,165.287 74.5,168C 78.7314,168.919 82.7314,168.419 86.5,166.5C 87.4232,165.697 88.4232,165.53 89.5,166C 90.2567,167.512 91.2567,168.846 92.5,170C 90.9419,170.21 89.6085,170.71 88.5,171.5C 87.8333,171.833 87.1667,172.167 86.5,172.5C 80.5714,168.952 78.2381,170.452 79.5,177C 84.4889,177.499 89.4889,177.666 94.5,177.5C 95.8333,177.5 96.5,176.833 96.5,175.5C 98.0419,174.837 99.7086,174.17 101.5,173.5C 99.376,170.721 97.7093,167.721 96.5,164.5C 100.736,158.372 104.736,152.038 108.5,145.5C 109.97,143.849 111.303,142.015 112.5,140C 108.752,140.623 105.086,141.456 101.5,142.5C 100.023,145.591 98.3561,148.591 96.5,151.5C 93.023,147.541 90.8563,142.874 90,137.5C 88.2811,136.131 86.4478,135.131 84.5,134.5C 89.1514,129.871 92.8181,124.537 95.5,118.5C 98.4518,120.785 101.118,123.452 103.5,126.5C 101.523,128.814 99.5227,131.147 97.5,133.5C 100.837,134.666 104.17,134.666 107.5,133.5C 111.167,133.5 114.833,133.5 118.5,133.5C 116.92,127.053 113.754,121.386 109,116.5C 108.333,114.5 108.333,112.5 109,110.5C 111.276,109.238 113.109,107.571 114.5,105.5C 121.292,97.5376 128.292,89.7043 135.5,82C 136.745,81.2086 138.078,80.7086 139.5,80.5C 141.167,80.5 142.833,80.5 144.5,80.5C 145.5,81.8333 146.5,83.1667 147.5,84.5C 143.631,86.6941 140.131,89.6941 137,93.5C 136.517,94.448 136.351,95.448 136.5,96.5C 134.967,98.7896 135.3,99.4563 137.5,98.5C 140.16,103.144 143.16,107.477 146.5,111.5C 146.987,112.473 147.487,113.473 148,114.5C 148.498,111.518 148.665,108.518 148.5,105.5C 148.5,99.1667 148.5,92.8333 148.5,86.5C 148.833,86.5 149.167,86.5 149.5,86.5C 153.167,91.1667 156.833,95.8333 160.5,100.5C 162.144,102.481 163.81,104.481 165.5,106.5C 166.647,104.235 166.814,101.902 166,99.5C 161.616,93.9555 157.449,88.2889 153.5,82.5C 154.314,80.369 154.814,78.0356 155,75.5C 155.995,74.9341 156.828,74.2674 157.5,73.5 Z M 138.5,123.5 C 138.5,124.167 138.5,124.833 138.5,125.5C 137.075,127.031 136.409,126.698 136.5,124.5C 137.167,124.167 137.833,123.833 138.5,123.5 Z M 179.5,144.5 C 179.5,144.167 179.5,143.833 179.5,143.5C 181.344,144.204 181.844,145.537 181,147.5C 180.283,146.956 179.783,146.289 179.5,145.5C 180.833,145.167 180.833,144.833 179.5,144.5 Z"/></g>
<g><path style="opacity:1" fill="#4d4e50" d="M 139.5,125.5 C 140.473,125.987 141.473,126.487 142.5,127C 141.829,127.986 141.829,129.153 142.5,130.5C 142.167,130.5 141.833,130.5 141.5,130.5C 140.559,128.95 139.893,127.284 139.5,125.5 Z"/></g>
<g><path style="opacity:1" fill="#62564f" d="M 108.5,123.5 C 110.529,125.021 111.362,127.021 111,129.5C 108.618,130.866 106.452,130.533 104.5,128.5C 103.354,129.145 102.354,129.978 101.5,131C 103.833,131.333 106.167,131.667 108.5,132C 107.944,132.383 107.611,132.883 107.5,133.5C 104.17,134.666 100.837,134.666 97.5,133.5C 99.5227,131.147 101.523,128.814 103.5,126.5C 104.117,126.611 104.617,126.944 105,127.5C 106.102,126.051 107.269,124.718 108.5,123.5 Z"/></g>
<g><path style="opacity:0.006" fill="#e7e7e7" d="M 136.5,124.5 C 136.409,126.698 137.075,127.031 138.5,125.5C 138.598,128.248 137.598,128.914 135.5,127.5C 135.263,126.209 135.596,125.209 136.5,124.5 Z"/></g>
<g><path style="opacity:0.349" fill="#acadad" d="M 138.5,123.5 C 137.833,123.833 137.167,124.167 136.5,124.5C 136.711,122.576 137.377,122.243 138.5,123.5 Z"/></g>
<g><path style="opacity:1" fill="#1c2124" d="M 119.5,115.5 C 121.998,119.817 122.831,119.483 122,114.5C 121.417,112.998 120.584,111.665 119.5,110.5C 118.702,110.957 118.369,111.624 118.5,112.5C 117.609,111.739 116.942,110.739 116.5,109.5C 119.167,108.5 121.833,107.5 124.5,106.5C 125.588,104.035 127.421,102.369 130,101.5C 130.638,104.536 130.472,107.536 129.5,110.5C 125.604,116.069 122.438,121.402 120,126.5C 118.622,124.787 116.955,123.453 115,122.5C 114.333,120.833 114.333,119.167 115,117.5C 117.501,119.056 119.001,118.389 119.5,115.5 Z"/></g>
<g><path style="opacity:1" fill="#616666" d="M 119.5,115.5 C 119.443,114.391 119.11,113.391 118.5,112.5C 118.369,111.624 118.702,110.957 119.5,110.5C 120.584,111.665 121.417,112.998 122,114.5C 122.831,119.483 121.998,119.817 119.5,115.5 Z"/></g>
<g><path style="opacity:1" fill="#96877b" d="M 140.5,97.5 C 142.5,99.8333 144.5,102.167 146.5,104.5C 146.842,105.338 147.508,105.672 148.5,105.5C 148.665,108.518 148.498,111.518 148,114.5C 147.487,113.473 146.987,112.473 146.5,111.5C 144.659,106.969 142.326,102.635 139.5,98.5C 139.624,97.8933 139.957,97.56 140.5,97.5 Z"/></g>
<g><path style="opacity:1" fill="#66625d" d="M 148.5,86.5 C 148.5,92.8333 148.5,99.1667 148.5,105.5C 147.508,105.672 146.842,105.338 146.5,104.5C 147.65,99.6842 147.816,94.6842 147,89.5C 144.218,91.7705 142.051,94.4372 140.5,97.5C 139.957,97.56 139.624,97.8933 139.5,98.5C 142.326,102.635 144.659,106.969 146.5,111.5C 143.16,107.477 140.16,103.144 137.5,98.5C 135.3,99.4563 134.967,98.7896 136.5,96.5C 140.051,92.711 144.051,89.3777 148.5,86.5 Z"/></g>
<g><path style="opacity:1" fill="#040403" d="M 146.5,104.5 C 144.5,102.167 142.5,99.8333 140.5,97.5C 142.051,94.4372 144.218,91.7705 147,89.5C 147.816,94.6842 147.65,99.6842 146.5,104.5 Z"/></g>
<g><path style="opacity:1" fill="#323837" d="M 147.5,84.5 C 148.5,84.8333 149.167,85.5 149.5,86.5C 149.167,86.5 148.833,86.5 148.5,86.5C 144.051,89.3777 140.051,92.711 136.5,96.5C 136.351,95.448 136.517,94.448 137,93.5C 140.131,89.6941 143.631,86.6941 147.5,84.5 Z"/></g>
<g><path style="opacity:0.333" fill="#b4b4b5" d="M 197.5,131.5 C 198.906,131.973 199.573,132.973 199.5,134.5C 199.167,134.5 198.833,134.5 198.5,134.5C 197.89,133.609 197.557,132.609 197.5,131.5 Z"/></g>
<g><path style="opacity:0.811" fill="#8e8e8e" d="M 501.5,121.5 C 503.692,125.098 504.692,129.098 504.5,133.5C 504.83,153.674 504.497,173.674 503.5,193.5C 503.667,172.497 503.5,151.497 503,130.5C 502.304,127.522 501.804,124.522 501.5,121.5 Z"/></g>
<g><path style="opacity:0.243" fill="#d4d4d4" d="M 722.5,110.5 C 717.637,110.181 712.97,110.514 708.5,111.5C 708.5,138.833 708.5,166.167 708.5,193.5C 713.167,193.5 717.833,193.5 722.5,193.5C 722.17,173.326 722.503,153.326 723.5,133.5C 723.5,153.833 723.5,174.167 723.5,194.5C 718.167,194.5 712.833,194.5 707.5,194.5C 707.5,166.167 707.5,137.833 707.5,109.5C 712.695,109.179 717.695,109.513 722.5,110.5 Z"/></g>
<g><path style="opacity:0.894" fill="#bbbbbb" d="M 901.5,131.5 C 903.208,134.95 904.541,138.617 905.5,142.5C 902.81,139.431 901.477,135.764 901.5,131.5 Z"/></g>
<g><path style="opacity:0.331" fill="#c7c7c7" d="M 773.5,130.5 C 774.497,151.66 774.831,172.993 774.5,194.5C 769.305,194.821 764.305,194.487 759.5,193.5C 764.167,193.5 768.833,193.5 773.5,193.5C 773.5,172.5 773.5,151.5 773.5,130.5 Z"/></g>
<g><path style="opacity:1" fill="#636969" d="M 92.5,136.5 C 98.1764,136.334 103.843,136.501 109.5,137C 104.427,139.242 99.0939,139.909 93.5,139C 92.7476,138.329 92.4142,137.496 92.5,136.5 Z"/></g>
<g><path style="opacity:0.164" fill="#d7d7d7" d="M 488.5,130.5 C 489.222,130.918 489.722,131.584 490,132.5C 490.5,152.831 490.667,173.164 490.5,193.5C 494.833,193.5 499.167,193.5 503.5,193.5C 504.497,173.674 504.83,153.674 504.5,133.5C 505.497,153.66 505.83,173.993 505.5,194.5C 500.167,194.5 494.833,194.5 489.5,194.5C 489.776,173.144 489.443,151.811 488.5,130.5 Z"/></g>
<g><path style="opacity:0.608" fill="#a5a5a5" d="M 578.5,136.5 C 577.737,137.268 576.737,137.768 575.5,138C 564.659,138.825 553.992,138.659 543.5,137.5C 555.193,137.721 566.86,137.388 578.5,136.5 Z"/></g>
<g><path style="opacity:0.384" fill="#cbcbcb" d="M 887.5,134.5 C 889.601,137.797 890.935,141.463 891.5,145.5C 889.399,142.203 888.065,138.537 887.5,134.5 Z"/></g>
<g><path style="opacity:1" fill="#212729" d="M 145.5,117.5 C 143.376,115.941 141.709,113.941 140.5,111.5C 139.386,110.224 138.386,110.224 137.5,111.5C 129.597,126.305 121.43,140.972 113,155.5C 113.025,153.08 113.691,150.747 115,148.5C 122.229,136.489 128.895,124.156 135,111.5C 136.737,109.375 138.904,108.542 141.5,109C 144.011,111.326 145.344,114.159 145.5,117.5 Z"/></g>
<g><path style="opacity:1" fill="#2d3133" d="M 144.5,123.5 C 150.105,135.364 156.771,146.697 164.5,157.5C 162.604,158.466 160.604,158.799 158.5,158.5C 146.5,158.5 134.5,158.5 122.5,158.5C 124.833,157.833 127.167,157.167 129.5,156.5C 138.017,156.826 146.35,156.493 154.5,155.5C 154.167,154.833 153.833,154.167 153.5,153.5C 153.539,150.911 152.539,148.911 150.5,147.5C 148.326,144.485 146.659,141.151 145.5,137.5C 144.773,135.046 143.773,132.713 142.5,130.5C 143.268,128.285 143.935,125.952 144.5,123.5 Z"/></g>
<g><path style="opacity:1" fill="#262c2e" d="M 177.5,139.5 C 176.655,140.671 175.989,142.005 175.5,143.5C 173.844,142.854 172.177,142.187 170.5,141.5C 168.7,141.902 167.033,142.569 165.5,143.5C 167.186,140.406 169.686,139.406 173,140.5C 174.268,137.221 175.768,136.888 177.5,139.5 Z"/></g>
<g><path style="opacity:1" fill="#090908" d="M 88.5,149.5 C 90.1667,151.5 91.8333,153.5 93.5,155.5C 92.1535,157.537 90.8202,159.537 89.5,161.5C 86.447,161.681 83.447,161.848 80.5,162C 82.5977,159.146 84.931,156.479 87.5,154C 87.1667,153.833 86.8333,153.667 86.5,153.5C 83.1011,156.573 79.7677,159.573 76.5,162.5C 76.5,157.167 76.5,151.833 76.5,146.5C 77.1145,144.277 78.4478,142.611 80.5,141.5C 83.5483,143.882 86.2149,146.548 88.5,149.5 Z"/></g>
<g><path style="opacity:0.008" fill="#e1e2e2" d="M 177.5,139.5 C 178.338,139.842 178.672,140.508 178.5,141.5C 177.167,141.833 177.167,142.167 178.5,142.5C 178.5,143.167 178.833,143.5 179.5,143.5C 179.5,143.833 179.5,144.167 179.5,144.5C 178.833,144.5 178.5,144.833 178.5,145.5C 177.508,145.672 176.842,145.338 176.5,144.5C 176.167,144.5 175.833,144.5 175.5,144.5C 175.5,144.167 175.5,143.833 175.5,143.5C 175.989,142.005 176.655,140.671 177.5,139.5 Z"/></g>
<g><path style="opacity:1" fill="#686d70" d="M 198.5,134.5 C 198.833,134.5 199.167,134.5 199.5,134.5C 201.735,137.291 203.735,140.291 205.5,143.5C 204.153,142.829 202.986,142.829 202,143.5C 201.292,142.619 200.458,141.953 199.5,141.5C 202.153,138.478 201.486,137.478 197.5,138.5C 197.833,137.167 198.167,135.833 198.5,134.5 Z"/></g>
<g><path style="opacity:0.086" fill="#e1e1e1" d="M 406.5,136.5 C 408.04,138.838 408.706,141.505 408.5,144.5C 394.5,144.5 380.5,144.5 366.5,144.5C 366.232,142.901 366.566,141.568 367.5,140.5C 367.5,141.5 367.5,142.5 367.5,143.5C 380.837,143.667 394.171,143.5 407.5,143C 406.577,140.959 406.244,138.792 406.5,136.5 Z"/></g>
<g><path style="opacity:1" fill="#111416" d="M 199.5,141.5 C 200.458,141.953 201.292,142.619 202,143.5C 202.986,142.829 204.153,142.829 205.5,143.5C 205.5,144.167 205.5,144.833 205.5,145.5C 205.5,146.833 205.5,148.167 205.5,149.5C 202.728,149.22 200.228,149.887 198,151.5C 197.022,148.331 197.522,145.497 199.5,143C 198.262,143.077 197.262,142.911 196.5,142.5C 197.325,141.614 198.325,141.281 199.5,141.5 Z"/></g>
<g><path style="opacity:0.086" fill="#dfdfdf" d="M 638.5,135.5 C 638.221,138.118 637.554,140.618 636.5,143C 649.829,143.5 663.163,143.667 676.5,143.5C 676.599,140.763 676.265,138.096 675.5,135.5C 676.117,135.611 676.617,135.944 677,136.5C 677.497,139.146 677.664,141.813 677.5,144.5C 663.5,144.5 649.5,144.5 635.5,144.5C 635.528,141.084 636.528,138.084 638.5,135.5 Z"/></g>
<g><path style="opacity:1" fill="#bbafa0" d="M 76.5,134.5 C 75.2354,137.563 76.2354,138.23 79.5,136.5C 85.0985,138.927 89.4318,142.927 92.5,148.5C 91.3112,149.429 89.9778,149.762 88.5,149.5C 86.2149,146.548 83.5483,143.882 80.5,141.5C 78.4478,142.611 77.1145,144.277 76.5,146.5C 75.8335,152.014 75.1668,157.681 74.5,163.5C 73.6143,162.675 73.281,161.675 73.5,160.5C 73.334,155.156 73.5006,149.823 74,144.5C 76.0476,142.494 75.5476,141.494 72.5,141.5C 72.7373,142.791 72.404,143.791 71.5,144.5C 71.1961,143.85 70.8627,143.183 70.5,142.5C 71.8237,141.065 73.4904,140.065 75.5,139.5C 73.9907,137.38 74.324,135.713 76.5,134.5 Z"/></g>
<g><path style="opacity:1" fill="#474948" d="M 84.5,131.5 C 83.375,132.652 83.375,133.652 84.5,134.5C 86.4478,135.131 88.2811,136.131 90,137.5C 90.8563,142.874 93.023,147.541 96.5,151.5C 95.4884,152.872 94.4884,154.205 93.5,155.5C 91.8333,153.5 90.1667,151.5 88.5,149.5C 89.9778,149.762 91.3112,149.429 92.5,148.5C 89.4318,142.927 85.0985,138.927 79.5,136.5C 81.0516,134.658 82.7182,132.991 84.5,131.5 Z"/></g>
<g><path style="opacity:1" fill="#42484b" d="M 197.5,138.5 C 195.358,140.891 195.025,143.557 196.5,146.5C 195.192,147.626 193.858,147.626 192.5,146.5C 192.5,145.5 192.5,144.5 192.5,143.5C 192.5,141.833 192.5,140.167 192.5,138.5C 194.167,138.5 195.833,138.5 197.5,138.5 Z"/></g>
<g><path style="opacity:0.961" fill="#b1b1b1" d="M 905.5,142.5 C 907.352,145.551 908.686,148.884 909.5,152.5C 906.54,149.9 905.206,146.567 905.5,142.5 Z"/></g>
<g><path style="opacity:0.992" fill="#5a544e" d="M 73.5,160.5 C 70.8447,159.533 70.178,157.867 71.5,155.5C 71.0233,154.522 70.3567,153.689 69.5,153C 69.9551,150.688 70.9551,148.688 72.5,147C 71.7476,146.329 71.4142,145.496 71.5,144.5C 72.404,143.791 72.7373,142.791 72.5,141.5C 75.5476,141.494 76.0476,142.494 74,144.5C 73.5006,149.823 73.334,155.156 73.5,160.5 Z"/></g>
<g><path style="opacity:0.286" fill="#acacad" d="M 126.5,145.5 C 126.25,147.674 125.25,149.341 123.5,150.5C 123.75,148.326 124.75,146.659 126.5,145.5 Z"/></g>
<g><path style="opacity:1" fill="#7d7b78" d="M 183.5,143.5 C 182.549,144.919 182.216,146.585 182.5,148.5C 179.795,148.38 179.128,149.38 180.5,151.5C 180,151.833 179.5,152.167 179,152.5C 176.832,150.159 174.665,147.825 172.5,145.5C 173.325,144.614 174.325,144.281 175.5,144.5C 175.833,144.5 176.167,144.5 176.5,144.5C 176.842,145.338 177.508,145.672 178.5,145.5C 178.833,145.5 179.167,145.5 179.5,145.5C 179.783,146.289 180.283,146.956 181,147.5C 181.844,145.537 181.344,144.204 179.5,143.5C 178.833,143.5 178.5,143.167 178.5,142.5C 178.5,142.167 178.5,141.833 178.5,141.5C 179.167,141.5 179.833,141.5 180.5,141.5C 180.56,142.043 180.893,142.376 181.5,142.5C 183.005,139.869 183.671,140.203 183.5,143.5 Z"/></g>
<g><path style="opacity:0.322" fill="#b8b9bb" d="M 205.5,143.5 C 206.761,145.29 208.261,146.957 210,148.5C 210.497,150.81 210.663,153.143 210.5,155.5C 209.691,153.708 209.191,151.708 209,149.5C 207.45,148.409 206.283,147.076 205.5,145.5C 205.5,144.833 205.5,144.167 205.5,143.5 Z"/></g>
<g><path style="opacity:0.833" fill="#acacac" d="M 353.5,135.5 C 352.634,145.473 352.301,155.473 352.5,165.5C 349.906,155.426 350.239,145.426 353.5,135.5 Z"/></g>
<g><path style="opacity:1" fill="#625d57" d="M 108.5,145.5 C 108.483,143.972 107.816,143.472 106.5,144C 104.045,147.078 101.711,150.244 99.5,153.5C 98.4173,152.635 98.2506,151.635 99,150.5C 101.274,148.494 103.108,146.161 104.5,143.5C 103.675,142.614 102.675,142.281 101.5,142.5C 105.086,141.456 108.752,140.623 112.5,140C 111.303,142.015 109.97,143.849 108.5,145.5 Z"/></g>
<g><path style="opacity:0.357" fill="#aeafaf" d="M 150.5,147.5 C 152.539,148.911 153.539,150.911 153.5,153.5C 151.992,151.819 150.992,149.819 150.5,147.5 Z"/></g>
<g><path style="opacity:0.571" fill="#bebebe" d="M 332.5,180.5 C 332.5,166.5 332.5,152.5 332.5,138.5C 319.167,138.5 305.833,138.5 292.5,138.5C 292.5,142.167 292.5,145.833 292.5,149.5C 301.085,149.183 309.585,149.517 318,150.5C 318.667,158.833 318.667,167.167 318,175.5C 316.871,177.141 315.371,178.141 313.5,178.5C 314.458,177.038 315.624,175.705 317,174.5C 317.5,166.841 317.666,159.174 317.5,151.5C 310.851,150.215 304.184,150.215 297.5,151.5C 295.366,151.485 293.366,150.985 291.5,150C 290.167,146 290.167,142 291.5,138C 305.496,137.5 319.496,137.333 333.5,137.5C 333.829,152.01 333.496,166.343 332.5,180.5 Z"/></g>
<g><path style="opacity:1" fill="#252b2f" d="M 199.5,141.5 C 198.325,141.281 197.325,141.614 196.5,142.5C 197.262,142.911 198.262,143.077 199.5,143C 197.522,145.497 197.022,148.331 198,151.5C 200.228,149.887 202.728,149.22 205.5,149.5C 205.5,148.167 205.5,146.833 205.5,145.5C 206.283,147.076 207.45,148.409 209,149.5C 209.191,151.708 209.691,153.708 210.5,155.5C 210.5,155.833 210.5,156.167 210.5,156.5C 207.275,155.626 203.608,155.626 199.5,156.5C 200.464,151.601 198.964,151.268 195,155.5C 193.855,152.568 193.022,149.568 192.5,146.5C 193.858,147.626 195.192,147.626 196.5,146.5C 195.025,143.557 195.358,140.891 197.5,138.5C 201.486,137.478 202.153,138.478 199.5,141.5 Z"/></g>
<g><path style="opacity:0.008" fill="#f4f5f4" d="M 544.5,151.5 C 545.833,152.167 545.833,152.167 544.5,151.5 Z"/></g>
<g><path style="opacity:0.164" fill="#d8d8d8" d="M 861.5,139.5 C 860.469,143.427 859.135,147.261 857.5,151C 869.162,151.5 880.829,151.667 892.5,151.5C 892.167,149.5 891.833,147.5 891.5,145.5C 892.117,145.611 892.617,145.944 893,146.5C 893.495,148.473 893.662,150.473 893.5,152.5C 881.167,152.5 868.833,152.5 856.5,152.5C 857.204,147.71 858.871,143.377 861.5,139.5 Z"/></g>
<g><path style="opacity:1" fill="#5b544f" d="M 175.5,143.5 C 175.5,143.833 175.5,144.167 175.5,144.5C 174.325,144.281 173.325,144.614 172.5,145.5C 174.665,147.825 176.832,150.159 179,152.5C 179.5,152.167 180,151.833 180.5,151.5C 179.128,149.38 179.795,148.38 182.5,148.5C 182.216,146.585 182.549,144.919 183.5,143.5C 184.268,144.263 184.768,145.263 185,146.5C 185.499,152.491 185.666,158.491 185.5,164.5C 184.5,164.5 183.5,164.5 182.5,164.5C 180.292,157.079 176.125,150.746 170,145.5C 169.517,146.448 169.351,147.448 169.5,148.5C 167.227,148.043 165.894,146.71 165.5,144.5C 165.5,144.167 165.5,143.833 165.5,143.5C 167.033,142.569 168.7,141.902 170.5,141.5C 172.177,142.187 173.844,142.854 175.5,143.5 Z M 179.5,144.5 C 179.5,144.167 179.5,143.833 179.5,143.5C 181.344,144.204 181.844,145.537 181,147.5C 180.283,146.956 179.783,146.289 179.5,145.5C 180.833,145.167 180.833,144.833 179.5,144.5 Z"/></g>
<g><path style="opacity:0.045" fill="#d7d8d9" d="M 121.5,154.5 C 132.321,155.495 143.321,155.828 154.5,155.5C 146.35,156.493 138.017,156.826 129.5,156.5C 126.428,156.817 123.428,156.484 120.5,155.5C 120.624,154.893 120.957,154.56 121.5,154.5 Z"/></g>
<g><path style="opacity:0.651" fill="#b5b5b5" d="M 421.5,138.5 C 422.49,144.645 422.823,150.978 422.5,157.5C 403.83,157.333 385.164,157.5 366.5,158C 367.598,158.77 367.598,159.603 366.5,160.5C 365.549,159.081 365.216,157.415 365.5,155.5C 384.167,155.5 402.833,155.5 421.5,155.5C 421.5,149.833 421.5,144.167 421.5,138.5 Z"/></g>
<g><path style="opacity:1" fill="#a59b8d" d="M 101.5,142.5 C 102.675,142.281 103.675,142.614 104.5,143.5C 103.108,146.161 101.274,148.494 99,150.5C 98.2506,151.635 98.4173,152.635 99.5,153.5C 101.711,150.244 104.045,147.078 106.5,144C 107.816,143.472 108.483,143.972 108.5,145.5C 104.736,152.038 100.736,158.372 96.5,164.5C 93.8127,164.664 91.146,164.497 88.5,164C 89.2524,163.329 89.5858,162.496 89.5,161.5C 90.8202,159.537 92.1535,157.537 93.5,155.5C 94.4884,154.205 95.4884,152.872 96.5,151.5C 98.3561,148.591 100.023,145.591 101.5,142.5 Z"/></g>
<g><path style="opacity:0.011" fill="#f1f1f1" d="M 691.5,156.5 C 673.341,157.497 655.008,157.83 636.5,157.5C 636.704,160.518 637.037,163.518 637.5,166.5C 635.825,163.493 635.159,160.16 635.5,156.5C 654.167,156.5 672.833,156.5 691.5,156.5 Z"/></g>
<g><path style="opacity:0.294" fill="#c9c8c6" d="M 65.5,154.5 C 65.2132,157.484 63.5465,158.817 60.5,158.5C 62.3784,157.468 64.0451,156.134 65.5,154.5 Z"/></g>
<g><path style="opacity:1" fill="#41494a" d="M 137.5,111.5 C 138.386,110.224 139.386,110.224 140.5,111.5C 141.709,113.941 143.376,115.941 145.5,117.5C 145.833,117.5 146.167,117.5 146.5,117.5C 149.011,123.197 152.011,128.53 155.5,133.5C 154.859,134.482 154.193,135.482 153.5,136.5C 155.396,137.466 157.396,137.799 159.5,137.5C 158.048,138.302 156.382,138.802 154.5,139C 157.234,139.21 159.734,140.044 162,141.5C 162.667,140.833 163.333,140.167 164,139.5C 164.198,141.382 164.698,143.048 165.5,144.5C 165.894,146.71 167.227,148.043 169.5,148.5C 169.557,149.609 169.89,150.609 170.5,151.5C 168.901,151.768 167.568,151.434 166.5,150.5C 167.239,150.631 167.906,150.464 168.5,150C 165.337,148.52 163.504,146.02 163,142.5C 162.018,145.775 162.851,148.441 165.5,150.5C 165.062,150.435 164.728,150.601 164.5,151C 169.719,154.43 174.053,158.763 177.5,164C 173.848,164.499 170.182,164.665 166.5,164.5C 164.31,163.626 163.31,161.959 163.5,159.5C 161.585,159.784 159.919,159.451 158.5,158.5C 160.604,158.799 162.604,158.466 164.5,157.5C 156.771,146.697 150.105,135.364 144.5,123.5C 143.172,118.835 140.839,114.835 137.5,111.5 Z"/></g>
<g><path style="opacity:1" fill="#999288" d="M 166.5,150.5 C 166.167,150.5 165.833,150.5 165.5,150.5C 162.851,148.441 162.018,145.775 163,142.5C 163.504,146.02 165.337,148.52 168.5,150C 167.906,150.464 167.239,150.631 166.5,150.5 Z"/></g>
<g><path style="opacity:1" fill="#576162" d="M 122.5,158.5 C 134.5,158.5 146.5,158.5 158.5,158.5C 159.919,159.451 161.585,159.784 163.5,159.5C 163.31,161.959 164.31,163.626 166.5,164.5C 148.5,164.5 130.5,164.5 112.5,164.5C 113.945,162.867 115.279,161.034 116.5,159C 118.473,158.505 120.473,158.338 122.5,158.5 Z"/></g>
<g><path style="opacity:1" fill="#8f8075" d="M 182.5,164.5 C 180.61,164.703 179.11,164.037 178,162.5C 175.637,158.655 173.137,154.989 170.5,151.5C 169.89,150.609 169.557,149.609 169.5,148.5C 169.351,147.448 169.517,146.448 170,145.5C 176.125,150.746 180.292,157.079 182.5,164.5 Z"/></g>
<g><path style="opacity:1" fill="#5d5a56" d="M 68.5,159.5 C 67.2616,161.214 66.595,163.214 66.5,165.5C 63.6481,164.742 60.9815,164.742 58.5,165.5C 57.6618,165.158 57.3284,164.492 57.5,163.5C 58.8333,163.5 60.1667,163.5 61.5,163.5C 62.0431,163.44 62.3764,163.107 62.5,162.5C 61.1468,161.476 60.4802,160.143 60.5,158.5C 63.5465,158.817 65.2132,157.484 65.5,154.5C 66.1174,154.389 66.6174,154.056 67,153.5C 67.3153,155.586 67.8153,157.586 68.5,159.5 Z"/></g>
<g><path style="opacity:0.035" fill="#d6d5d4" d="M 60.5,158.5 C 60.4802,160.143 61.1468,161.476 62.5,162.5C 62.3764,163.107 62.0431,163.44 61.5,163.5C 60.3915,162.71 59.0581,162.21 57.5,162C 58.6405,161.259 58.6405,160.425 57.5,159.5C 58.325,158.614 59.325,158.281 60.5,158.5 Z"/></g>
<g><path style="opacity:1" fill="#a19588" d="M 71.5,144.5 C 71.4142,145.496 71.7476,146.329 72.5,147C 70.9551,148.688 69.9551,150.688 69.5,153C 70.3567,153.689 71.0233,154.522 71.5,155.5C 70.178,157.867 70.8447,159.533 73.5,160.5C 73.281,161.675 73.6143,162.675 74.5,163.5C 75.1668,157.681 75.8335,152.014 76.5,146.5C 76.5,151.833 76.5,157.167 76.5,162.5C 79.8333,163.833 83.1667,165.167 86.5,166.5C 82.7314,168.419 78.7314,168.919 74.5,168C 72.2805,165.287 70.2805,162.454 68.5,159.5C 67.8153,157.586 67.3153,155.586 67,153.5C 66.6174,154.056 66.1174,154.389 65.5,154.5C 67.0002,150.827 69.0002,147.494 71.5,144.5 Z"/></g>
<g><path style="opacity:1" fill="#1d1f20" d="M 189.5,145.5 C 191.414,152.307 191.747,159.307 190.5,166.5C 193.119,166.768 195.619,166.435 198,165.5C 197.52,168.165 196.687,170.831 195.5,173.5C 194.614,172.675 194.281,171.675 194.5,170.5C 192.856,170.286 191.356,170.62 190,171.5C 188.833,169.833 187.667,168.167 186.5,166.5C 168.338,165.173 150.338,165.173 132.5,166.5C 131.833,166.5 131.5,166.833 131.5,167.5C 125.785,165.45 119.785,164.95 113.5,166C 114.125,168.8 114.792,171.634 115.5,174.5C 118.367,173.787 120.867,172.454 123,170.5C 124.31,171.13 125.144,172.13 125.5,173.5C 121.022,173.882 116.689,174.882 112.5,176.5C 112.5,172.5 112.5,168.5 112.5,164.5C 130.5,164.5 148.5,164.5 166.5,164.5C 170.182,164.665 173.848,164.499 177.5,164C 174.053,158.763 169.719,154.43 164.5,151C 164.728,150.601 165.062,150.435 165.5,150.5C 165.833,150.5 166.167,150.5 166.5,150.5C 167.568,151.434 168.901,151.768 170.5,151.5C 173.137,154.989 175.637,158.655 178,162.5C 179.11,164.037 180.61,164.703 182.5,164.5C 183.5,164.5 184.5,164.5 185.5,164.5C 186.327,159.015 186.827,153.348 187,147.5C 187.484,145.822 188.317,145.156 189.5,145.5 Z"/></g>
<g><path style="opacity:0.318" fill="#cccccc" d="M 902.5,175.5 C 900.802,172.769 899.469,169.769 898.5,166.5C 882.77,165.184 867.103,165.184 851.5,166.5C 859.138,165.169 867.138,164.502 875.5,164.5C 883.5,164.833 891.5,165.167 899.5,165.5C 900.909,168.727 901.909,172.06 902.5,175.5 Z"/></g>
<g><path style="opacity:1" fill="#070708" d="M 131.5,167.5 C 133.463,168.96 135.296,170.627 137,172.5C 137.796,175.039 137.629,177.372 136.5,179.5C 135.061,177.64 133.395,175.973 131.5,174.5C 131.217,173.711 130.717,173.044 130,172.5C 129.368,177.416 127.868,177.749 125.5,173.5C 125.144,172.13 124.31,171.13 123,170.5C 120.867,172.454 118.367,173.787 115.5,174.5C 114.792,171.634 114.125,168.8 113.5,166C 119.785,164.95 125.785,165.45 131.5,167.5 Z"/></g>
<g><path style="opacity:0.216" fill="#c1c2c2" d="M 213.5,163.5 C 214.906,163.973 215.573,164.973 215.5,166.5C 214.094,166.027 213.427,165.027 213.5,163.5 Z"/></g>
<g><path style="opacity:1" fill="#544b46" d="M 89.5,161.5 C 89.5858,162.496 89.2524,163.329 88.5,164C 91.146,164.497 93.8127,164.664 96.5,164.5C 97.7093,167.721 99.376,170.721 101.5,173.5C 99.7086,174.17 98.0419,174.837 96.5,175.5C 95.1634,174.685 94.1634,173.518 93.5,172C 91.8659,171.506 90.1992,171.34 88.5,171.5C 89.6085,170.71 90.9419,170.21 92.5,170C 91.2567,168.846 90.2567,167.512 89.5,166C 88.4232,165.53 87.4232,165.697 86.5,166.5C 83.1667,165.167 79.8333,163.833 76.5,162.5C 79.7677,159.573 83.1011,156.573 86.5,153.5C 86.8333,153.667 87.1667,153.833 87.5,154C 84.931,156.479 82.5977,159.146 80.5,162C 83.447,161.848 86.447,161.681 89.5,161.5 Z"/></g>
<g><path style="opacity:0.075" fill="#e1e1e1" d="M 836.5,165.5 C 836.598,167.553 835.931,169.22 834.5,170.5C 834.402,168.447 835.069,166.78 836.5,165.5 Z"/></g>
<g><path style="opacity:0.357" fill="#d5d2cf" d="M 57.5,163.5 C 57.3284,164.492 57.6618,165.158 58.5,165.5C 57.8902,166.391 57.5569,167.391 57.5,168.5C 57.634,170.292 57.3007,171.958 56.5,173.5C 56.5,174.167 56.1667,174.5 55.5,174.5C 56.1359,171.894 56.1359,169.394 55.5,167C 56.0848,165.698 56.7515,164.531 57.5,163.5 Z"/></g>
<g><path style="opacity:1" fill="#60625f" d="M 131.5,167.5 C 131.5,166.833 131.833,166.5 132.5,166.5C 137.214,166.173 141.88,166.507 146.5,167.5C 143.849,169.65 141.349,171.983 139,174.5C 138.667,180.833 138.333,187.167 138,193.5C 133.482,189.84 130.982,185.173 130.5,179.5C 131.855,183.172 134.022,186.506 137,189.5C 137.747,186.076 137.58,182.743 136.5,179.5C 137.629,177.372 137.796,175.039 137,172.5C 135.296,170.627 133.463,168.96 131.5,167.5 Z"/></g>
<g><path style="opacity:0.725" fill="#c5c5c5" d="M 269.5,171.5 C 271.5,172.833 273.167,174.5 274.5,176.5C 271.833,175.833 270.167,174.167 269.5,171.5 Z"/></g>
<g><path style="opacity:0.075" fill="#d8d8d7" d="M 88.5,171.5 C 90.1992,171.34 91.8659,171.506 93.5,172C 94.1634,173.518 95.1634,174.685 96.5,175.5C 96.5,176.833 95.8333,177.5 94.5,177.5C 92.1224,175.08 89.1224,173.913 85.5,174C 86.056,173.617 86.3893,173.117 86.5,172.5C 87.1667,172.167 87.8333,171.833 88.5,171.5 Z"/></g>
<g><path style="opacity:1" fill="#7c7671" d="M 155.5,175.5 C 154.566,176.568 154.232,177.901 154.5,179.5C 153.331,179.272 151.997,179.772 150.5,181C 151.696,181.654 151.696,182.154 150.5,182.5C 149.102,179.565 149.435,176.898 151.5,174.5C 152.289,174.217 152.956,173.717 153.5,173C 156.063,172.874 158.396,172.707 160.5,172.5C 162.67,171.251 165.004,170.251 167.5,169.5C 168.354,170.522 169.354,171.355 170.5,172C 169.5,173 168.5,174 167.5,175C 172.511,175.585 177.511,176.251 182.5,177C 174.841,177.5 167.174,177.666 159.5,177.5C 159.5,176.5 159.5,175.5 159.5,174.5C 157.901,174.232 156.568,174.566 155.5,175.5 Z"/></g>
<g><path style="opacity:1" fill="#484746" d="M 155.5,175.5 C 156.568,174.566 157.901,174.232 159.5,174.5C 159.5,175.5 159.5,176.5 159.5,177.5C 167.174,177.666 174.841,177.5 182.5,177C 177.511,176.251 172.511,175.585 167.5,175C 168.5,174 169.5,173 170.5,172C 169.354,171.355 168.354,170.522 167.5,169.5C 165.004,170.251 162.67,171.251 160.5,172.5C 160.611,171.883 160.944,171.383 161.5,171C 159.096,170.492 158.429,169.325 159.5,167.5C 161.697,169.731 164.03,169.731 166.5,167.5C 170.453,169.476 174.453,171.476 178.5,173.5C 180.325,172.349 182.325,171.682 184.5,171.5C 184.33,172.822 184.663,173.989 185.5,175C 187.895,175.681 190.228,176.515 192.5,177.5C 181.181,178.666 169.848,178.832 158.5,178C 157.309,177.302 156.309,176.469 155.5,175.5 Z"/></g>
<g><path style="opacity:1" fill="#3e4547" d="M 59.5,165.5 C 66.7529,168.419 72.0863,173.419 75.5,180.5C 76.1495,182.435 76.4828,184.435 76.5,186.5C 71.2425,179.235 65.5759,172.235 59.5,165.5 Z"/></g>
<g><path style="opacity:1" fill="#6d7073" d="M 216.5,169.5 C 218.588,171.336 219.921,173.669 220.5,176.5C 219.603,175.402 218.77,175.402 218,176.5C 217.56,174.134 217.06,171.801 216.5,169.5 Z"/></g>
<g><path style="opacity:0.278" fill="#cbcbcb" d="M 353.5,170.5 C 355.341,172.849 356.674,175.515 357.5,178.5C 355.127,176.421 353.794,173.754 353.5,170.5 Z"/></g>
<g><path style="opacity:0.431" fill="#c6c6c6" d="M 414.5,173.5 C 416.754,174.124 418.421,175.457 419.5,177.5C 417.205,176.864 415.539,175.531 414.5,173.5 Z"/></g>
<g><path style="opacity:0.082" fill="#cac9c9" d="M 55.5,174.5 C 55.2503,176.674 54.2503,178.341 52.5,179.5C 52.7497,177.326 53.7497,175.659 55.5,174.5 Z"/></g>
<g><path style="opacity:1" fill="#68635e" d="M 86.5,172.5 C 86.3893,173.117 86.056,173.617 85.5,174C 89.1224,173.913 92.1224,175.08 94.5,177.5C 89.4889,177.666 84.4889,177.499 79.5,177C 78.2381,170.452 80.5714,168.952 86.5,172.5 Z"/></g>
<g><path style="opacity:1" fill="#3e4546" d="M 131.5,174.5 C 130.566,175.568 130.232,176.901 130.5,178.5C 124.158,178.666 117.825,178.5 111.5,178C 110.288,176.893 110.621,176.393 112.5,176.5C 116.689,174.882 121.022,173.882 125.5,173.5C 127.868,177.749 129.368,177.416 130,172.5C 130.717,173.044 131.217,173.711 131.5,174.5 Z"/></g>
<g><path style="opacity:0.541" fill="#bfbfbf" d="M 683.5,173.5 C 680.5,175.5 677.5,177.5 674.5,179.5C 676.628,176.87 678.961,174.37 681.5,172C 682.816,171.472 683.483,171.972 683.5,173.5 Z"/></g>
<g><path style="opacity:0.639" fill="#cbcbcb" d="M 687.5,176.5 C 691.408,177.316 692.074,178.983 689.5,181.5C 689.608,179.486 688.942,177.82 687.5,176.5 Z"/></g>
<g><path style="opacity:1" fill="#625e58" d="M 58.5,165.5 C 58.8333,165.5 59.1667,165.5 59.5,165.5C 65.5759,172.235 71.2425,179.235 76.5,186.5C 76.5,186.833 76.5,187.167 76.5,187.5C 76.4894,189.686 75.4894,190.519 73.5,190C 76.3323,188.092 75.999,187.259 72.5,187.5C 70.9087,186.781 69.4087,185.781 68,184.5C 64.637,178.991 61.137,173.658 57.5,168.5C 57.5569,167.391 57.8902,166.391 58.5,165.5 Z"/></g>
<g><path style="opacity:1" fill="#a49284" d="M 131.5,174.5 C 133.395,175.973 135.061,177.64 136.5,179.5C 137.58,182.743 137.747,186.076 137,189.5C 134.022,186.506 131.855,183.172 130.5,179.5C 130.5,179.167 130.5,178.833 130.5,178.5C 130.232,176.901 130.566,175.568 131.5,174.5 Z"/></g>
<g><path style="opacity:0.192" fill="#bdbdbe" d="M 221.5,178.5 C 223.25,179.659 224.25,181.326 224.5,183.5C 224.167,183.5 223.833,183.5 223.5,183.5C 222.559,181.95 221.893,180.284 221.5,178.5 Z"/></g>
<g><path style="opacity:0.62" fill="#c7c7c7" d="M 258.5,181.5 C 261.089,182.419 263.089,184.086 264.5,186.5C 261.911,185.581 259.911,183.914 258.5,181.5 Z"/></g>
<g><path style="opacity:0.369" fill="#cfcfcf" d="M 903.5,178.5 C 905.472,181.084 906.472,184.084 906.5,187.5C 904.928,184.785 903.928,181.785 903.5,178.5 Z"/></g>
<g><path style="opacity:1" fill="#585755" d="M 151.5,174.5 C 149.435,176.898 149.102,179.565 150.5,182.5C 151.696,182.154 151.696,181.654 150.5,181C 151.997,179.772 153.331,179.272 154.5,179.5C 157.469,180.825 160.469,180.825 163.5,179.5C 164.5,179.833 165.167,180.5 165.5,181.5C 162.792,184.209 159.792,186.542 156.5,188.5C 155.957,188.44 155.624,188.107 155.5,187.5C 157.005,186.158 157.672,184.492 157.5,182.5C 156.178,182.67 155.011,182.337 154,181.5C 153.333,182.833 152.667,184.167 152,185.5C 151.798,190.989 150.798,196.322 149,201.5C 148.517,200.552 148.351,199.552 148.5,198.5C 148.715,190.216 148.882,181.883 149,173.5C 150.461,172.117 151.294,172.451 151.5,174.5 Z"/></g>
<g><path style="opacity:0.257" fill="#c6c6c6" d="M 280.5,180.5 C 290.158,183.12 299.824,183.12 309.5,180.5C 307.974,182.13 305.974,182.963 303.5,183C 297.5,183.667 291.5,183.667 285.5,183C 283.509,182.626 281.842,181.793 280.5,180.5 Z"/></g>
<g><path style="opacity:0.502" fill="#c1c1c1" d="M 358.5,180.5 C 360.531,181.539 361.864,183.205 362.5,185.5C 360.457,184.421 359.124,182.754 358.5,180.5 Z"/></g>
<g><path style="opacity:0.031" fill="#dbdbdb" d="M 379.5,180.5 C 387.141,183.123 394.807,183.123 402.5,180.5C 401.77,182.045 400.437,182.878 398.5,183C 393.167,183.667 387.833,183.667 382.5,183C 381.058,182.623 380.058,181.79 379.5,180.5 Z"/></g>
<g><path style="opacity:0.039" fill="#dcdcdc" d="M 650.5,181.5 C 657.167,182.833 663.833,182.833 670.5,181.5C 670.082,182.222 669.416,182.722 668.5,183C 663.167,183.667 657.833,183.667 652.5,183C 651.584,182.722 650.918,182.222 650.5,181.5 Z"/></g>
<g><path style="opacity:1" fill="#414342" d="M 57.5,183.5 C 56.7611,183.369 56.0944,183.536 55.5,184C 56.914,188.696 56.414,189.196 54,185.5C 52.9914,187.025 52.4914,188.692 52.5,190.5C 51.3994,189.152 50.3994,187.652 49.5,186C 50.4491,185.383 51.2825,185.549 52,186.5C 52.49,185.207 52.6567,183.873 52.5,182.5C 53.8521,180.283 55.5187,178.95 57.5,178.5C 57.2385,180.132 58.2385,181.299 60.5,182C 59.7562,183.039 58.7562,183.539 57.5,183.5 Z"/></g>
<g><path style="opacity:1" fill="#8e8074" d="M 57.5,168.5 C 61.137,173.658 64.637,178.991 68,184.5C 69.4087,185.781 70.9087,186.781 72.5,187.5C 71.6236,187.369 70.9569,187.702 70.5,188.5C 72.2108,190.24 73.0442,192.24 73,194.5C 71.7432,192.254 69.9099,190.921 67.5,190.5C 64.0689,184.627 60.4022,178.96 56.5,173.5C 57.3007,171.958 57.634,170.292 57.5,168.5 Z"/></g>
<g><path style="opacity:0.004" fill="#e2e2e2" d="M 687.5,183.5 C 686.833,186.167 685.167,187.833 682.5,188.5C 683.833,186.5 685.5,184.833 687.5,183.5 Z"/></g>
<g><path style="opacity:1" fill="#8e8175" d="M 109.5,197.5 C 107.167,194.167 104.833,190.833 102.5,187.5C 102.461,186.417 102.127,185.417 101.5,184.5C 102.002,183.479 102.668,183.312 103.5,184C 105.549,186.593 107.715,189.093 110,191.5C 110.789,193.712 110.622,195.712 109.5,197.5 Z"/></g>
<g><path style="opacity:1" fill="#474d4d" d="M 109.5,197.5 C 110.622,195.712 110.789,193.712 110,191.5C 107.715,189.093 105.549,186.593 103.5,184C 102.668,183.312 102.002,183.479 101.5,184.5C 102.127,185.417 102.461,186.417 102.5,187.5C 101.71,188.609 101.21,189.942 101,191.5C 100.667,191.167 100.333,190.833 100,190.5C 99.6987,187.493 99.8654,184.493 100.5,181.5C 102.924,181.192 105.257,181.526 107.5,182.5C 108.833,184.5 110.5,186.167 112.5,187.5C 114.316,186.185 115.983,184.685 117.5,183C 119.764,182.764 121.931,182.264 124,181.5C 124.71,182.973 125.876,183.64 127.5,183.5C 127.666,187.514 127.499,191.514 127,195.5C 125.89,197.037 124.39,197.703 122.5,197.5C 122.5,196.5 122.5,195.5 122.5,194.5C 124.346,194.778 125.68,194.111 126.5,192.5C 125.911,189.724 124.578,187.39 122.5,185.5C 118.676,189.493 115.009,193.66 111.5,198C 110.563,198.692 109.897,198.525 109.5,197.5 Z"/></g>
<g><path style="opacity:0.212" fill="#cccece" d="M 227.5,186.5 C 228.906,186.973 229.573,187.973 229.5,189.5C 228.5,189.167 227.833,188.5 227.5,187.5C 227.5,187.167 227.5,186.833 227.5,186.5 Z"/></g>
<g><path style="opacity:1" fill="#909192" d="M 81.5,188.5 C 82.6005,189.605 83.2671,190.938 83.5,192.5C 82.6236,192.631 81.9569,192.298 81.5,191.5C 80.3473,190.313 80.3473,189.313 81.5,188.5 Z"/></g>
<g><path style="opacity:1" fill="#363d3f" d="M 223.5,183.5 C 223.833,183.5 224.167,183.5 224.5,183.5C 225.303,184.423 225.47,185.423 225,186.5C 220.301,194.556 214.635,201.889 208,208.5C 207.308,209.437 207.475,210.103 208.5,210.5C 208.5,210.833 208.5,211.167 208.5,211.5C 207.325,211.719 206.325,211.386 205.5,210.5C 206.456,208.925 207.123,207.258 207.5,205.5C 213.34,200.649 217.673,194.649 220.5,187.5C 222.229,186.764 223.229,185.43 223.5,183.5 Z"/></g>
<g><path style="opacity:0.208" fill="#c9cacb" d="M 229.5,189.5 C 230.674,190.514 231.34,191.847 231.5,193.5C 229.896,192.713 229.229,191.38 229.5,189.5 Z"/></g>
<g><path style="opacity:1" fill="#4f4d4a" d="M 210.5,155.5 C 212.097,157.848 213.097,160.514 213.5,163.5C 212.603,162.402 211.77,162.402 211,163.5C 205.104,175.217 198.604,186.55 191.5,197.5C 190.957,197.56 190.624,197.893 190.5,198.5C 195.792,199.495 201.125,199.828 206.5,199.5C 206.5,200.5 206.5,201.5 206.5,202.5C 198.833,202.5 191.167,202.5 183.5,202.5C 183.322,201.305 182.989,200.138 182.5,199C 183.391,196.721 184.391,194.554 185.5,192.5C 190.966,185.503 195.466,177.836 199,169.5C 202.342,165.826 206.008,162.492 210,159.5C 210.483,158.552 210.649,157.552 210.5,156.5C 210.5,156.167 210.5,155.833 210.5,155.5 Z"/></g>
<g><path style="opacity:1" fill="#101214" d="M 213.5,163.5 C 213.427,165.027 214.094,166.027 215.5,166.5C 216.404,167.209 216.737,168.209 216.5,169.5C 217.06,171.801 217.56,174.134 218,176.5C 218.77,175.402 219.603,175.402 220.5,176.5C 221.338,176.842 221.672,177.508 221.5,178.5C 221.893,180.284 222.559,181.95 223.5,183.5C 223.229,185.43 222.229,186.764 220.5,187.5C 217.64,191.355 214.64,195.188 211.5,199C 209.893,198.981 208.226,198.815 206.5,198.5C 205.663,193.168 207.663,189.501 212.5,187.5C 214.029,187.529 215.196,188.196 216,189.5C 216,188.167 216,186.833 216,185.5C 217.533,185.056 219.033,184.723 220.5,184.5C 219.391,182.615 218.557,180.615 218,178.5C 217.667,178.833 217.333,179.167 217,179.5C 216.692,178.692 216.192,178.025 215.5,177.5C 215.894,179.424 215.227,181.257 213.5,183C 213.833,183.333 214.167,183.667 214.5,184C 211.582,185.709 208.748,187.542 206,189.5C 205.047,191.455 203.713,193.122 202,194.5C 201.51,195.793 201.343,197.127 201.5,198.5C 197.958,198.813 194.625,198.479 191.5,197.5C 198.604,186.55 205.104,175.217 211,163.5C 211.77,162.402 212.603,162.402 213.5,163.5 Z"/></g>
<g><path style="opacity:0.029" fill="#dadada" d="M 317.5,191.5 C 314.619,193.68 311.286,194.68 307.5,194.5C 310.619,193.13 313.952,192.13 317.5,191.5 Z"/></g>
<g><path style="opacity:0.466" fill="#bebebe" d="M 842.5,191.5 C 842.5,192.5 842.5,193.5 842.5,194.5C 836.794,194.829 831.128,194.495 825.5,193.5C 825.624,192.893 825.957,192.56 826.5,192.5C 828.81,193.164 831.31,193.497 834,193.5C 837.105,193.389 839.938,192.722 842.5,191.5 Z"/></g>
<g><path style="opacity:0.479" fill="#bcbcbc" d="M 922.5,186.5 C 923.67,188.65 924.67,190.984 925.5,193.5C 919.833,194.833 914.167,194.833 908.5,193.5C 907.628,191.55 906.961,189.55 906.5,187.5C 908.043,188.736 909.043,190.402 909.5,192.5C 914.167,193.833 918.833,193.833 923.5,192.5C 922.652,190.591 922.318,188.591 922.5,186.5 Z"/></g>
<g><path style="opacity:1" fill="#161719" d="M 56.5,173.5 C 60.4022,178.96 64.0689,184.627 67.5,190.5C 69.7481,193.328 71.7481,196.328 73.5,199.5C 72.1696,200.832 70.5029,201.665 68.5,202C 70.6952,205.359 73.3619,208.193 76.5,210.5C 75.8333,210.5 75.1667,210.5 74.5,210.5C 72.8333,210.5 71.1667,210.5 69.5,210.5C 68.8033,205.95 66.3033,202.617 62,200.5C 59.4005,197.241 57.2338,193.741 55.5,190C 58.6287,189.883 59.7954,188.383 59,185.5C 58.6667,186.167 58.3333,186.833 58,187.5C 57.51,186.207 57.3433,184.873 57.5,183.5C 58.7562,183.539 59.7562,183.039 60.5,182C 58.2385,181.299 57.2385,180.132 57.5,178.5C 55.5187,178.95 53.8521,180.283 52.5,182.5C 52.5,181.5 52.5,180.5 52.5,179.5C 54.2503,178.341 55.2503,176.674 55.5,174.5C 56.1667,174.5 56.5,174.167 56.5,173.5 Z"/></g>
<g><path style="opacity:1" fill="#484948" d="M 174.5,193.5 C 175.568,194.434 176.901,194.768 178.5,194.5C 178.539,196.359 177.706,197.692 176,198.5C 172.731,197.182 169.565,197.182 166.5,198.5C 165.883,198.389 165.383,198.056 165,197.5C 164.506,199.134 164.34,200.801 164.5,202.5C 162.132,200.044 161.132,197.044 161.5,193.5C 162.873,193.657 164.207,193.49 165.5,193C 163.393,191.736 162.393,189.903 162.5,187.5C 165.959,186.932 168.959,185.599 171.5,183.5C 171.92,187.007 172.92,190.341 174.5,193.5 Z"/></g>
<g><path style="opacity:0.786" fill="#9f9f9f" d="M 373.5,192.5 C 382.418,194.103 391.418,194.77 400.5,194.5C 393.679,195.655 386.679,195.821 379.5,195C 377.148,194.76 375.148,193.927 373.5,192.5 Z"/></g>
<g><path style="opacity:0.775" fill="#a2a2a2" d="M 644.5,193.5 C 654.161,194.756 663.828,194.756 673.5,193.5C 668.935,195.04 664.102,195.707 659,195.5C 653.898,195.707 649.065,195.04 644.5,193.5 Z"/></g>
<g><path style="opacity:1" fill="#070809" d="M 224.5,203.5 C 224.167,202.833 223.833,202.167 223.5,201.5C 222.167,200.167 222.167,198.833 223.5,197.5C 224.315,196.571 225.148,195.571 226,194.5C 228.377,198.088 230.877,201.588 233.5,205C 230.156,205.906 227.156,205.406 224.5,203.5 Z"/></g>
<g><path style="opacity:0.224" fill="#c7c8ca" d="M 231.5,193.5 C 232.906,193.973 233.573,194.973 233.5,196.5C 232.094,196.027 231.427,195.027 231.5,193.5 Z"/></g>
<g><path style="opacity:0.044" fill="#e6e6e6" d="M 307.5,194.5 C 303.426,195.954 299.093,196.621 294.5,196.5C 291.645,196.497 288.978,196.164 286.5,195.5C 293.524,195.565 300.524,195.232 307.5,194.5 Z"/></g>
<g><path style="opacity:1" fill="#0e0c0b" d="M 52.5,199.5 C 53.7017,201.392 55.035,203.226 56.5,205C 51.9796,205.814 47.6463,205.647 43.5,204.5C 45.3222,201.528 47.1555,198.528 49,195.5C 50.3756,196.705 51.5423,198.038 52.5,199.5 Z"/></g>
<g><path style="opacity:1" fill="#4f4a46" d="M 72.5,187.5 C 75.999,187.259 76.3323,188.092 73.5,190C 75.4894,190.519 76.4894,189.686 76.5,187.5C 79.389,193.291 82.389,199.124 85.5,205C 81.6175,204.615 79.1175,202.448 78,198.5C 77.79,200.058 77.29,201.391 76.5,202.5C 75.1667,201.833 74.1667,200.833 73.5,199.5C 71.7481,196.328 69.7481,193.328 67.5,190.5C 69.9099,190.921 71.7432,192.254 73,194.5C 73.0442,192.24 72.2108,190.24 70.5,188.5C 70.9569,187.702 71.6236,187.369 72.5,187.5 Z"/></g>
<g><path style="opacity:1" fill="#5d5e5a" d="M 102.5,196.5 C 103.738,198.791 103.238,200.791 101,202.5C 98.6837,201.478 98.1837,199.978 99.5,198C 96.1161,189.248 94.9494,189.415 96,198.5C 95.7216,197.584 95.2216,196.918 94.5,196.5C 93.8032,191.929 92.6365,187.596 91,183.5C 95.3556,187.357 99.1889,191.69 102.5,196.5 Z"/></g>
<g><path style="opacity:1" fill="#575e5e" d="M 224.5,183.5 C 226.5,183.5 227.5,184.5 227.5,186.5C 227.5,186.833 227.5,187.167 227.5,187.5C 224.569,190.013 223.235,193.347 223.5,197.5C 222.167,198.833 222.167,200.167 223.5,201.5C 222.508,201.328 221.842,201.662 221.5,202.5C 221.5,203.167 221.167,203.5 220.5,203.5C 219.957,203.56 219.624,203.893 219.5,204.5C 221.045,205.452 222.712,205.785 224.5,205.5C 223.048,206.302 221.382,206.802 219.5,207C 218.409,208.55 217.076,209.717 215.5,210.5C 213.167,210.5 210.833,210.5 208.5,210.5C 207.475,210.103 207.308,209.437 208,208.5C 214.635,201.889 220.301,194.556 225,186.5C 225.47,185.423 225.303,184.423 224.5,183.5 Z"/></g>
<g><path style="opacity:1" fill="#252525" d="M 185.5,192.5 C 184.391,194.554 183.391,196.721 182.5,199C 182.989,200.138 183.322,201.305 183.5,202.5C 182.141,201.993 181.141,200.993 180.5,199.5C 177.719,202.934 175.386,206.601 173.5,210.5C 171.803,208.695 170.97,206.361 171,203.5C 169.483,201.76 167.983,200.094 166.5,198.5C 169.565,197.182 172.731,197.182 176,198.5C 177.706,197.692 178.539,196.359 178.5,194.5C 176.901,194.768 175.568,194.434 174.5,193.5C 176.993,193.671 178.826,192.671 180,190.5C 180.333,190.833 180.667,191.167 181,191.5C 181.333,190.5 181.667,189.5 182,188.5C 182.498,190.544 183.665,191.878 185.5,192.5 Z"/></g>
<g><path style="opacity:1" fill="#535857" d="M 91.5,197.5 C 92.1667,197.833 92.8333,198.167 93.5,198.5C 95.0808,200.142 95.7475,202.142 95.5,204.5C 93.9639,207.092 91.6305,208.092 88.5,207.5C 88.9175,206.778 89.5842,206.278 90.5,206C 89.5989,203.529 88.5989,201.029 87.5,198.5C 88.6888,197.571 90.0222,197.238 91.5,197.5 Z"/></g>
<g><path style="opacity:1" fill="#232525" d="M 156.5,188.5 C 155.791,189.404 154.791,189.737 153.5,189.5C 153.515,193.56 153.015,197.56 152,201.5C 148.68,206.169 145.013,206.502 141,202.5C 126.53,203.827 112.03,203.827 97.5,202.5C 96.8182,203.243 96.1515,203.909 95.5,204.5C 95.7475,202.142 95.0808,200.142 93.5,198.5C 94.3382,198.158 94.6716,197.492 94.5,196.5C 95.2216,196.918 95.7216,197.584 96,198.5C 94.9494,189.415 96.1161,189.248 99.5,198C 98.1837,199.978 98.6837,201.478 101,202.5C 103.238,200.791 103.738,198.791 102.5,196.5C 103.158,195.602 103.824,194.602 104.5,193.5C 105.601,198.104 108.435,200.77 113,201.5C 121.725,200.252 130.392,200.252 139,201.5C 139.249,200.376 139.749,199.376 140.5,198.5C 143.427,200.655 146.094,200.655 148.5,198.5C 148.351,199.552 148.517,200.552 149,201.5C 150.798,196.322 151.798,190.989 152,185.5C 152.667,184.167 153.333,182.833 154,181.5C 155.011,182.337 156.178,182.67 157.5,182.5C 157.672,184.492 157.005,186.158 155.5,187.5C 155.624,188.107 155.957,188.44 156.5,188.5 Z"/></g>
<g><path style="opacity:1" fill="#4e4e4c" d="M 146.5,193.5 C 147.645,194.793 147.311,195.959 145.5,197C 143.597,197.774 141.93,197.44 140.5,196C 142.974,195.963 144.974,195.13 146.5,193.5 Z"/></g>
<g><path style="opacity:1" fill="#090909" d="M 183.5,202.5 C 191.719,202.846 199.719,203.846 207.5,205.5C 207.123,207.258 206.456,208.925 205.5,210.5C 206.325,211.386 207.325,211.719 208.5,211.5C 208.5,212.833 208.5,214.167 208.5,215.5C 207.167,215.5 205.833,215.5 204.5,215.5C 203.85,213.565 203.517,211.565 203.5,209.5C 197.955,211.022 192.288,211.688 186.5,211.5C 185.688,210.007 184.355,209.34 182.5,209.5C 179.532,210.162 176.532,210.495 173.5,210.5C 175.386,206.601 177.719,202.934 180.5,199.5C 181.141,200.993 182.141,201.993 183.5,202.5 Z"/></g>
<g><path style="opacity:1" fill="#242628" d="M 220.5,187.5 C 217.673,194.649 213.34,200.649 207.5,205.5C 199.719,203.846 191.719,202.846 183.5,202.5C 191.167,202.5 198.833,202.5 206.5,202.5C 206.5,201.5 206.5,200.5 206.5,199.5C 201.125,199.828 195.792,199.495 190.5,198.5C 190.624,197.893 190.957,197.56 191.5,197.5C 194.625,198.479 197.958,198.813 201.5,198.5C 201.343,197.127 201.51,195.793 202,194.5C 203.713,193.122 205.047,191.455 206,189.5C 208.748,187.542 211.582,185.709 214.5,184C 214.167,183.667 213.833,183.333 213.5,183C 215.227,181.257 215.894,179.424 215.5,177.5C 216.192,178.025 216.692,178.692 217,179.5C 217.333,179.167 217.667,178.833 218,178.5C 218.557,180.615 219.391,182.615 220.5,184.5C 219.033,184.723 217.533,185.056 216,185.5C 216,186.833 216,188.167 216,189.5C 215.196,188.196 214.029,187.529 212.5,187.5C 207.663,189.501 205.663,193.168 206.5,198.5C 208.226,198.815 209.893,198.981 211.5,199C 214.64,195.188 217.64,191.355 220.5,187.5 Z"/></g>
<g><path style="opacity:1" fill="#262b2d" d="M 57.5,183.5 C 57.3433,184.873 57.51,186.207 58,187.5C 58.3333,186.833 58.6667,186.167 59,185.5C 59.7954,188.383 58.6287,189.883 55.5,190C 57.2338,193.741 59.4005,197.241 62,200.5C 66.3033,202.617 68.8033,205.95 69.5,210.5C 71.1667,210.5 72.8333,210.5 74.5,210.5C 72.3926,211.468 70.0593,211.802 67.5,211.5C 67.5,210.833 67.1667,210.5 66.5,210.5C 63.3046,205.431 59.6379,200.765 55.5,196.5C 54.5,194.5 53.5,192.5 52.5,190.5C 52.4914,188.692 52.9914,187.025 54,185.5C 56.414,189.196 56.914,188.696 55.5,184C 56.0944,183.536 56.7611,183.369 57.5,183.5 Z"/></g>
<g><path style="opacity:1" fill="#7e736c" d="M 166.5,198.5 C 167.983,200.094 169.483,201.76 171,203.5C 170.97,206.361 171.803,208.695 173.5,210.5C 176.532,210.495 179.532,210.162 182.5,209.5C 184.355,209.34 185.688,210.007 186.5,211.5C 185.5,211.5 184.5,211.5 183.5,211.5C 182.001,210.506 180.334,210.506 178.5,211.5C 175.5,211.5 172.5,211.5 169.5,211.5C 169.158,210.662 168.492,210.328 167.5,210.5C 167.804,209.85 168.137,209.183 168.5,208.5C 166.748,206.754 165.415,204.754 164.5,202.5C 164.34,200.801 164.506,199.134 165,197.5C 165.383,198.056 165.883,198.389 166.5,198.5 Z"/></g>
<g><path style="opacity:0.916" fill="#ada093" d="M 52.5,179.5 C 52.5,180.5 52.5,181.5 52.5,182.5C 52.6567,183.873 52.49,185.207 52,186.5C 51.2825,185.549 50.4491,185.383 49.5,186C 50.3994,187.652 51.3994,189.152 52.5,190.5C 53.5,192.5 54.5,194.5 55.5,196.5C 55.6567,197.873 55.49,199.207 55,200.5C 54.3292,199.748 53.4959,199.414 52.5,199.5C 51.5423,198.038 50.3756,196.705 49,195.5C 47.1555,198.528 45.3222,201.528 43.5,204.5C 42.9569,204.56 42.6236,204.893 42.5,205.5C 44.5,206.167 46.5,206.833 48.5,207.5C 46.0087,208.541 46.0087,209.374 48.5,210C 54.4908,210.499 60.4908,210.666 66.5,210.5C 67.1667,210.5 67.5,210.833 67.5,211.5C 58.1667,211.5 48.8333,211.5 39.5,211.5C 38.3622,208.696 38.1955,205.696 39,202.5C 43.2865,193.808 47.7865,186.141 52.5,179.5 Z"/></g>
<g><path style="opacity:0.132" fill="#d1d1d1" d="M 221.5,202.5 C 221.842,201.662 222.508,201.328 223.5,201.5C 223.833,202.167 224.167,202.833 224.5,203.5C 224.5,204.167 224.5,204.833 224.5,205.5C 222.712,205.785 221.045,205.452 219.5,204.5C 219.624,203.893 219.957,203.56 220.5,203.5C 221.251,204.573 222.251,204.74 223.5,204C 222.956,203.283 222.289,202.783 221.5,202.5 Z"/></g>
<g><path style="opacity:1" fill="#202223" d="M 75.5,180.5 C 77.8532,182.86 79.8532,185.527 81.5,188.5C 80.3473,189.313 80.3473,190.313 81.5,191.5C 81.9569,192.298 82.6236,192.631 83.5,192.5C 84.0283,193.721 84.695,194.887 85.5,196C 87.7078,196.191 89.7078,196.691 91.5,197.5C 90.0222,197.238 88.6888,197.571 87.5,198.5C 88.5989,201.029 89.5989,203.529 90.5,206C 89.5842,206.278 88.9175,206.778 88.5,207.5C 83.6691,207.305 79.6691,205.639 76.5,202.5C 77.29,201.391 77.79,200.058 78,198.5C 79.1175,202.448 81.6175,204.615 85.5,205C 82.389,199.124 79.389,193.291 76.5,187.5C 76.5,187.167 76.5,186.833 76.5,186.5C 76.4828,184.435 76.1495,182.435 75.5,180.5 Z"/></g>
<g><path style="opacity:1" fill="#9b8b7f" d="M 55.5,196.5 C 59.6379,200.765 63.3046,205.431 66.5,210.5C 60.4908,210.666 54.4908,210.499 48.5,210C 46.0087,209.374 46.0087,208.541 48.5,207.5C 46.5,206.833 44.5,206.167 42.5,205.5C 42.6236,204.893 42.9569,204.56 43.5,204.5C 47.6463,205.647 51.9796,205.814 56.5,205C 55.035,203.226 53.7017,201.392 52.5,199.5C 53.4959,199.414 54.3292,199.748 55,200.5C 55.49,199.207 55.6567,197.873 55.5,196.5 Z"/></g>
<g><path style="opacity:1" fill="#343b3e" d="M 227.5,187.5 C 227.833,188.5 228.5,189.167 229.5,189.5C 229.229,191.38 229.896,192.713 231.5,193.5C 231.427,195.027 232.094,196.027 233.5,196.5C 234.674,197.514 235.34,198.847 235.5,200.5C 236.324,203.764 236.658,207.098 236.5,210.5C 229.5,210.5 222.5,210.5 215.5,210.5C 217.076,209.717 218.409,208.55 219.5,207C 221.382,206.802 223.048,206.302 224.5,205.5C 224.5,204.833 224.5,204.167 224.5,203.5C 227.156,205.406 230.156,205.906 233.5,205C 230.877,201.588 228.377,198.088 226,194.5C 225.148,195.571 224.315,196.571 223.5,197.5C 223.235,193.347 224.569,190.013 227.5,187.5 Z"/></g>
<g><path style="opacity:0.719" fill="#68696a" d="M 146.5,210.5 C 144.901,210.232 143.568,210.566 142.5,211.5C 142.167,211.5 141.833,211.5 141.5,211.5C 136.833,211.5 132.167,211.5 127.5,211.5C 132.84,210.719 138.34,210.052 144,209.5C 145.07,209.528 145.903,209.861 146.5,210.5 Z"/></g>
<g><path style="opacity:0.071" fill="#c3c3c3" d="M 142.5,211.5 C 143.568,210.566 144.901,210.232 146.5,210.5C 148.157,211.575 149.991,212.242 152,212.5C 157.192,211.862 162.359,211.195 167.5,210.5C 168.492,210.328 169.158,210.662 169.5,211.5C 165.088,213.183 160.755,213.85 156.5,213.5C 153.803,214.63 151.137,214.63 148.5,213.5C 148.158,212.662 147.492,212.328 146.5,212.5C 145.432,211.566 144.099,211.232 142.5,211.5 Z"/></g>
<g><path style="opacity:0.133" fill="#b7b7b8" d="M 204.5,215.5 C 204.167,215.5 203.833,215.5 203.5,215.5C 202.852,213.914 202.352,212.247 202,210.5C 201.751,211.624 201.251,212.624 200.5,213.5C 200.167,212.833 199.833,212.167 199.5,211.5C 195.045,214.122 190.712,214.122 186.5,211.5C 192.288,211.688 197.955,211.022 203.5,209.5C 203.517,211.565 203.85,213.565 204.5,215.5 Z"/></g>
<g><path style="opacity:0.698" fill="#7e8182" d="M 208.5,210.5 C 210.833,210.5 213.167,210.5 215.5,210.5C 222.5,210.5 229.5,210.5 236.5,210.5C 227.5,211.167 218.5,211.833 209.5,212.5C 209.737,213.791 209.404,214.791 208.5,215.5C 208.5,214.167 208.5,212.833 208.5,211.5C 208.5,211.167 208.5,210.833 208.5,210.5 Z"/></g>
<g><path style="opacity:0.046" fill="#e0e0e0" d="M 169.5,211.5 C 172.5,211.5 175.5,211.5 178.5,211.5C 176.107,212.21 173.607,212.877 171,213.5C 170.283,212.956 169.783,212.289 169.5,211.5 Z"/></g>
<g><path style="opacity:0.006" fill="#f4f5f4" d="M 183.5,211.5 C 183.103,212.525 182.437,212.692 181.5,212C 182.094,211.536 182.761,211.369 183.5,211.5 Z"/></g>
<g><path style="opacity:0.1" fill="#dbdbdc" d="M 235.5,200.5 C 236.117,200.611 236.617,200.944 237,201.5C 237.499,205.152 237.665,208.818 237.5,212.5C 228.167,212.5 218.833,212.5 209.5,212.5C 218.5,211.833 227.5,211.167 236.5,210.5C 236.658,207.098 236.324,203.764 235.5,200.5 Z"/></g>
<g><path style="opacity:0.412" fill="#cccccc" d="M 74.5,210.5 C 75.1667,210.5 75.8333,210.5 76.5,210.5C 79.6952,212.03 83.1952,212.696 87,212.5C 92.7218,212.302 98.3885,211.635 104,210.5C 109.957,212.17 116.124,213.004 122.5,213C 124.719,214.907 126.386,214.407 127.5,211.5C 132.167,211.5 136.833,211.5 141.5,211.5C 137.167,212.167 132.833,212.833 128.5,213.5C 127.185,214.476 125.852,215.476 124.5,216.5C 123.482,215.807 122.482,215.141 121.5,214.5C 116.606,213.917 111.606,213.584 106.5,213.5C 84.1855,213.312 61.8522,212.646 39.5,211.5C 48.8333,211.5 58.1667,211.5 67.5,211.5C 70.0593,211.802 72.3926,211.468 74.5,210.5 Z"/></g>
<g><path style="opacity:0.004" fill="#f4f5f4" d="M 146.5,212.5 C 146.103,213.525 145.437,213.692 144.5,213C 145.094,212.536 145.761,212.369 146.5,212.5 Z"/></g>
<g><path style="opacity:0.004" fill="#f4f5f4" d="M 100.5,213.5 C 101.833,214.167 101.833,214.167 100.5,213.5 Z"/></g>
<g><path style="opacity:0.004" fill="#f4f5f4" d="M 106.5,213.5 C 106.103,214.525 105.437,214.692 104.5,214C 105.094,213.536 105.761,213.369 106.5,213.5 Z"/></g>
<g><path style="opacity:0.008" fill="#f4f5f4" d="M 128.5,213.5 C 129.833,214.167 129.833,214.167 128.5,213.5 Z"/></g>
<g><path style="opacity:0.004" fill="#f4f5f4" d="M 148.5,213.5 C 147.833,214.167 147.833,214.167 148.5,213.5 Z"/></g>
<g><path style="opacity:0.004" fill="#f4f5f4" d="M 156.5,213.5 C 157.833,214.167 157.833,214.167 156.5,213.5 Z"/></g>
<g><path style="opacity:0.004" fill="#f4f5f4" d="M 121.5,214.5 C 120.749,215.573 119.749,215.74 118.5,215C 119.448,214.517 120.448,214.351 121.5,214.5 Z"/></g>
<g><path style="opacity:0.004" fill="#f4f5f4" d="M 203.5,215.5 C 202.833,216.167 202.833,216.167 203.5,215.5 Z"/></g>
<g><path style="opacity:0.4" fill="#b9b8b9" d="M 204.5,215.5 C 205.833,215.5 207.167,215.5 208.5,215.5C 207.366,217.781 206.032,217.781 204.5,215.5 Z"/></g>
</svg>
